<?xml version="1.0" encoding="utf-8"?>
<!-- Generator: Adobe Illustrator 16.0.0, SVG Export Plug-In . SVG Version: 6.00 Build 0)  -->
<!DOCTYPE svg PUBLIC "-//W3C//DTD SVG 1.1//EN" "http://www.w3.org/Graphics/SVG/1.1/DTD/svg11.dtd">
<svg version="1.1" id="Layer_1" xmlns="http://www.w3.org/2000/svg" xmlns:xlink="http://www.w3.org/1999/xlink" x="0px" y="0px"
	 width="500px" height="550px" viewBox="0 0 500 550" enable-background="new 0 0 500 550" xml:space="preserve">
<path fill-rule="evenodd" clip-rule="evenodd" fill="#670EE3" d="M44.655,217.112c-1.281-14.71-2.562-29.419-3.843-44.128
	c1.396-1.541,3.218-2.875,4.085-4.671c1.178-2.44,0.828-6.085,2.551-7.701c3.864-3.622,8.67-6.22,12.947-9.431
	c1.37-1.027,2.797-2.498,3.306-4.057c1.681-5.147,2.757-10.537,9.521-11.491c0.677-0.096,1.353-1.341,1.736-2.186
	c1.352-2.987,3.266-5.935,3.707-9.075c0.931-6.637,5.367-9.6,10.525-12.655c4.143-2.455,9.977-4.076,9.693-10.583
	c-0.174-3.984,2.138-6.071,4.9-8.019c2.158-1.522,4.548-2.74,6.585-4.399c2.169-1.767,4.724-3.066,4.06-7.113
	c-0.303-1.849,2.524-4.423,4.307-6.313c0.929-0.986,3.262-0.807,3.952-1.833c3.975-5.915,10.593-10.692,12.993-16.502
	c3.121-7.556,11.686-8.455,14.083-15.503c0.109-0.321,1.209-0.432,1.846-0.425c3.474,0.037,4.513-1.048,3.785-4.888
	c-0.614-3.238,0.044-6.987,1.161-10.148c0.44-1.245,3.827-1.234,5.544-2.315c1.24-0.78,1.94-2.42,2.881-3.676
	c12.332,0,24.664,0,36.995,0c-1.046,2.828-1.313,6.603-3.325,8.258c-2.847,2.342-4.087,4.579-3.666,7.993
	c0.553,4.482-1.876,6.191-5.752,7.903c-5.147,2.272-10.131,5.232-11.75,11.612c-1.354,5.333-3.609,10.151-8.834,13.247
	c-5.493,3.253-10.546,7.025-10.686,14.642c-0.027,1.475-3.104,3.038-4.959,4.285c-1.298,0.874-3.475,0.865-4.284,1.968
	c-3.215,4.377-7.153,8.685-8.744,13.68c-2.041,6.41-5.635,9.893-11.686,11.946c-1.746,0.594-3.336,2.593-4.296,4.335
	c-1.497,2.714-1.768,6.286-3.677,8.553c-3.634,4.315-8.152,7.873-12.11,11.933c-1.706,1.75-2.953,3.954-4.366,5.98
	c-1.68,2.406-3.33,4.833-4.966,7.269c-3.027,4.507-5.979,9.066-9.08,13.522c-1.181,1.697-2.644,3.208-4.058,4.73
	c-1.015,1.092-2.192,2.033-3.244,3.094c-2.269,2.29-4.439,6.494-6.764,6.572c-7.048,0.24-7.852,4.803-8.775,9.778
	c-1.194,6.441-3.353,11.73-10.685,13.813c-2.724,0.774-4.795,4.07-7,6.373C47.595,213.231,46.183,215.227,44.655,217.112z"/>
<path fill-rule="evenodd" clip-rule="evenodd" fill="#640DDF" d="M44.655,217.112c1.528-1.885,2.939-3.88,4.611-5.626
	c2.205-2.303,4.276-5.599,7-6.373c7.332-2.083,9.491-7.371,10.685-13.813c0.923-4.975,1.728-9.538,8.775-9.778
	c2.324-0.078,4.495-4.283,6.764-6.572c1.052-1.062,2.229-2.002,3.244-3.094c1.414-1.521,2.877-3.033,4.058-4.73
	c3.102-4.456,6.053-9.015,9.08-13.522c1.636-2.436,3.286-4.863,4.966-7.269c1.414-2.027,2.66-4.231,4.366-5.98
	c3.958-4.06,8.476-7.618,12.11-11.933c1.909-2.267,2.181-5.838,3.677-8.553c0.959-1.742,2.55-3.742,4.296-4.335
	c6.05-2.053,9.645-5.536,11.686-11.946c1.591-4.995,5.529-9.302,8.744-13.68c0.809-1.103,2.986-1.094,4.284-1.968
	c1.854-1.247,4.932-2.81,4.959-4.285c0.14-7.616,5.193-11.388,10.686-14.642c5.225-3.095,7.48-7.914,8.834-13.247
	c1.619-6.38,6.603-9.34,11.75-11.612c3.875-1.712,6.305-3.421,5.752-7.903c-0.421-3.414,0.819-5.651,3.666-7.993
	c2.012-1.655,2.279-5.43,3.325-8.258c14.332,0,28.663,0,42.995,0c-1.806,3.221-3.552,6.479-5.441,9.651
	c-1.056,1.773-2.325,3.422-3.544,5.094c-0.912,1.251-1.771,2.582-2.883,3.634c-1.671,1.583-3.602,2.888-5.317,4.429
	c-2.111,1.895-3.928,4.167-6.208,5.812c-2.982,2.153-5.605,3.89-6.019,8.317c-0.263,2.827-2.955,5.497-4.762,8.095
	c-2.545,3.658-5.374,7.118-7.905,10.785c-2.309,3.342-2.784,7.328-7.261,9.939c-5.037,2.94-8.421,8.72-12.479,13.306
	c-0.276,0.313,0,1.096-0.266,1.438c-2.249,2.897-4.016,6.859-6.998,8.324c-3.822,1.876-5.824,3.928-5.907,8.017
	c-12.239,0-24.479,0-37.296,0c0,11.925,0,23.034,0,34.142c-4.117,3.81-9.81,6.916-11.912,11.625
	c-2.14,4.794-4.494,7.783-8.945,10.155c-2.69,1.434-6.796,4.84-6.438,6.564c1.608,7.733-4.511,9.937-8.578,12.975
	c-5.455,4.076-12.781,6.085-12.289,14.992c0.037,0.671-1.744,1.329-2.466,2.175c-3.741,4.377-12.353,3.298-12.811,11.432
	c-0.028,0.504-1.494,0.796-1.906,1.436c-1.219,1.889-2.987,3.833-3.184,5.884c-0.345,3.595-1.605,5.452-5.025,7.038
	c-3.945,1.831-9.953,2.325-9.365,9.193c0.037,0.43-1.695,1.01-2.604,1.52C46.326,236.352,45.491,226.731,44.655,217.112z"/>
<path fill-rule="evenodd" clip-rule="evenodd" fill="#6A0EE9" d="M164.979,20c-0.941,1.256-1.641,2.896-2.881,3.676
	c-1.718,1.081-5.104,1.07-5.544,2.315c-1.117,3.162-1.774,6.91-1.161,10.148c0.728,3.839-0.311,4.925-3.785,4.888
	c-0.637-0.007-1.736,0.104-1.846,0.425c-2.397,7.048-10.961,7.947-14.083,15.503c-2.4,5.81-9.018,10.587-12.993,16.502
	c-0.689,1.026-3.023,0.847-3.952,1.833c-1.783,1.89-4.61,4.465-4.307,6.313c0.664,4.047-1.891,5.347-4.06,7.113
	c-2.037,1.659-4.428,2.876-6.585,4.399c-2.762,1.948-5.074,4.035-4.9,8.019c0.284,6.508-5.55,8.129-9.693,10.583
	c-5.158,3.055-9.594,6.018-10.525,12.655c-0.44,3.14-2.354,6.088-3.707,9.075c-0.383,0.845-1.059,2.09-1.736,2.186
	c-6.763,0.954-7.84,6.344-9.521,11.491c-0.509,1.559-1.936,3.03-3.306,4.057c-4.277,3.21-9.083,5.809-12.947,9.431
	c-1.723,1.616-1.373,5.261-2.551,7.701c-0.867,1.795-2.688,3.13-4.085,4.671c-1.367-15.309-2.734-30.616-4.101-45.924
	c1.246-1.311,3.001-2.41,3.645-3.968c2.239-5.421,5.587-9.397,10.894-12.305c2.709-1.484,5.836-5.107,5.944-7.875
	c0.289-7.424,6.144-9.898,10.663-12.377c5.656-3.104,8.529-7.438,10.808-12.856c0.539-1.28,1.428-2.465,2.354-3.52
	c3.189-3.63,7.52-6.7,9.443-10.889c2.37-5.162,5.794-8.401,10.259-11.474c5.427-3.735,10.847-7.653,11.792-15.307
	c0.314-2.549,2.717-5.057,4.644-7.141c3.063-3.311,6.53-6.251,9.826-9.347C139.648,20,152.313,20,164.979,20z"/>
<path fill-rule="evenodd" clip-rule="evenodd" fill="#5809CB" d="M392.95,20c13.664,0,27.33,0,40.994,0
	c-0.449,1.844-0.32,4.741-1.444,5.359c-6.683,3.675-12.209,7.858-11.737,16.521c0.022,0.415-0.341,0.986-0.696,1.267
	c-5.422,4.265-10.579,8.979-16.447,12.508c-2.622,1.577-3.999,2.999-3.593,5.57c1.091,6.899-3.657,10.049-8.018,13.676
	c-4,3.327-8.072,6.667-11.515,10.533c-3.109,3.492-5.455,7.675-8.052,11.609c-1.408,2.132-2.51,4.472-3.986,6.55
	c-1.239,1.745-3.726,3.068-4.086,4.889c-1.22,6.163-6.16,8.29-10.784,10.322c-5.226,2.296-8.029,5.964-9.697,11.178
	c-1.532,4.794-3.058,9.842-8.824,11.492c-9.767-5.305-19.534-10.61-29.302-15.915c0.691-3.565,0.943-7.642,5.327-8.658
	c5.74-1.331,9.198-4.173,9.024-10.486c-0.022-0.822,0.829-1.764,1.457-2.491c3.445-3.991,6.842-8.031,10.472-11.849
	c2.028-2.132,5.778-3.477,6.489-5.854c1.99-6.654,9.423-7.637,12.249-13.122c1.293-2.507,2.878-4.865,4.152-7.38
	c1.418-2.797,2.036-6.276,4.094-8.401c2.309-2.382,6.198-3.171,8.742-5.402c2.998-2.631,5.488-5.924,7.819-9.199
	c1.575-2.213,2.033-5.309,3.807-7.271c3.474-3.845,7.627-7.068,11.263-10.781C391.81,23.488,392.207,21.575,392.95,20z"/>
<path fill-rule="evenodd" clip-rule="evenodd" fill="#5B0AD0" d="M392.95,20c-0.743,1.575-1.141,3.488-2.292,4.663
	c-3.636,3.713-7.789,6.936-11.263,10.781c-1.773,1.962-2.231,5.059-3.807,7.271c-2.331,3.275-4.821,6.568-7.819,9.199
	c-2.544,2.231-6.434,3.02-8.742,5.402c-2.058,2.125-2.676,5.604-4.094,8.401c-1.274,2.515-2.859,4.873-4.152,7.38
	c-2.826,5.485-10.259,6.468-12.249,13.122c-0.711,2.376-4.461,3.721-6.489,5.854c-3.63,3.818-7.026,7.858-10.472,11.849
	c-0.628,0.728-1.479,1.669-1.457,2.491c0.174,6.313-3.284,9.155-9.024,10.486c-4.384,1.016-4.636,5.092-5.326,8.658
	c-12.6-2.561-25.198-5.12-37.797-7.681c1.211-2.322,2.064-4.942,3.705-6.907c4.147-4.968,9.129-9.257,11.282-15.707
	c0.412-1.233,1.861-2.798,3.026-2.984c5.067-0.806,6.213-4.681,6.875-8.595c0.624-3.691,2.533-5.718,5.648-7.555
	c3.195-1.885,6.894-4.104,8.563-7.164c4.942-9.055,10.37-17.355,19.639-22.622c1.244-0.707,1.617-3.087,2.204-4.759
	c0.373-1.064-0.008-2.621,0.639-3.327c4.946-5.402,6.767-13.929,15.488-15.662c0.46-0.092,0.619-1.695,0.919-2.595
	C361.62,20,377.285,20,392.95,20z"/>
<path fill-rule="evenodd" clip-rule="evenodd" fill="#5508C7" d="M335.064,141.473c5.767-1.65,7.292-6.697,8.824-11.492
	c1.668-5.214,4.472-8.882,9.697-11.178c4.624-2.032,9.564-4.159,10.784-10.322c0.36-1.821,2.847-3.144,4.086-4.889
	c1.477-2.078,2.578-4.417,3.986-6.55c2.597-3.934,4.942-8.117,8.052-11.609c3.442-3.866,7.515-7.206,11.515-10.533
	c4.36-3.627,9.108-6.777,8.018-13.676c-0.406-2.571,0.971-3.993,3.593-5.57c5.868-3.529,11.025-8.243,16.447-12.508
	c0.355-0.28,0.719-0.852,0.696-1.267c-0.472-8.662,5.055-12.845,11.737-16.521c1.124-0.618,0.995-3.515,1.444-5.359
	c13.332,0,26.663,0,39.995,0c-4.853,6.017-9.519,12.197-14.594,18.02c-14.816,16.999-29.918,33.75-44.681,50.795
	c-17.791,20.543-35.279,41.348-53.074,61.889c-3.019,3.483-6.921,6.2-10.414,9.271C345.806,153.807,340.435,147.64,335.064,141.473z
	"/>
<path fill-rule="evenodd" clip-rule="evenodd" fill="#5709CB" d="M351.177,159.976c3.493-3.071,7.396-5.789,10.414-9.271
	c17.795-20.541,35.283-41.345,53.074-61.889c14.763-17.046,29.864-33.796,44.681-50.795c5.075-5.823,9.741-12.003,14.594-18.02
	c0.334,0,0.667,0,1,0c-2.021,21.664-4.043,43.329-6.064,64.993c-2.028,0.576-4.494,0.606-6.009,1.822
	c-6.426,5.156-11.529,11.951-19.997,14.512c-2.187,0.662-3.514,3.791-5.566,5.351c-3.646,2.772-7.533,5.231-11.347,7.781
	c-1.172,0.784-2.698,2.287-3.604,2.002c-3.576-1.124-4.7,1.347-6.276,3.461c-1.141,1.528-2.229,3.242-3.736,4.322
	c-3.763,2.694-8.226,4.582-11.501,7.734c-2.734,2.631-5.245,4.686-9.047,5.314c-1.248,0.207-2.426,1.591-3.386,2.661
	c-6.527,7.271-15.319,11.433-23.113,16.961c-3.786,2.686-7.566,5.379-11.349,8.069c-0.692-0.991-1.384-1.982-2.075-2.973
	C351.638,161.332,351.407,160.653,351.177,159.976z"/>
<path fill-rule="evenodd" clip-rule="evenodd" fill="#620CDB" d="M169.979,116.841c0.083-4.088,2.085-6.14,5.907-8.017
	c2.981-1.465,4.749-5.427,6.998-8.324c0.266-0.343-0.01-1.126,0.266-1.438c4.057-4.585,7.441-10.366,12.479-13.306
	c4.477-2.612,4.952-6.597,7.261-9.939c2.532-3.667,5.36-7.127,7.905-10.785c1.808-2.598,4.499-5.268,4.762-8.095
	c0.413-4.427,3.037-6.164,6.019-8.317c2.28-1.644,4.097-3.917,6.208-5.812c1.715-1.541,3.646-2.846,5.317-4.429
	c1.112-1.053,1.971-2.383,2.883-3.634c1.219-1.672,2.488-3.321,3.544-5.094c1.889-3.172,3.635-6.43,5.441-9.651
	c11.666,0,23.331,0,34.996,0c-2.487,6.752-1.992,15.069-10.309,18.752c-1.684,0.745-2.722,2.862-4.193,4.197
	c-1.09,0.987-2.29,2.148-3.634,2.503c-3.777,0.999-4.465,3.607-5.024,7.017c-0.42,2.557-1.81,6.565-3.527,7.012
	c-6.667,1.739-10.07,7.145-14.437,11.372c-1.913,1.851-2.575,4.971-3.894,7.469c-0.717,1.357-1.354,2.935-2.48,3.867
	c-5.157,4.264-10.544,8.104-12.459,15.228c-0.583,2.165-3.199,4.296-5.406,5.409c-5.911,2.981-9.47,7.048-8.626,14.017
	C193.976,116.842,181.978,116.841,169.979,116.841z"/>
<path fill-rule="evenodd" clip-rule="evenodd" fill="#5E0BD5" d="M345.956,20c-0.3,0.9-0.459,2.503-0.919,2.595
	c-8.722,1.733-10.542,10.26-15.488,15.662c-0.646,0.706-0.266,2.262-0.639,3.327c-0.587,1.672-0.96,4.052-2.204,4.759
	c-9.269,5.267-14.696,13.567-19.639,22.622c-1.67,3.06-5.368,5.279-8.563,7.164c-3.115,1.837-5.024,3.864-5.648,7.555
	c-0.662,3.914-1.808,7.789-6.875,8.595c-1.165,0.186-2.614,1.751-3.026,2.984c-2.153,6.45-7.135,10.739-11.282,15.707
	c-1.641,1.965-2.494,4.585-3.705,6.907c-7.668-0.223-15.336-0.447-23.004-0.67c-3.664-0.12-7.328-0.241-10.992-0.362
	c1.332-2.388,3.107-4.637,3.898-7.191c1.541-4.973,1.444-10.987,9.042-10.875c0.517,0.008,1.187-0.617,1.544-1.119
	c3.021-4.241,5.906-8.582,9.006-12.764c1.511-2.04,3.328-3.868,5.118-5.681c3.681-3.728,9.779-6.912,10.63-11.17
	c1.387-6.938,7.063-9.126,10.814-12.726c4.211-4.041,7.821-7.607,8.957-13.39c0.271-1.379,0.719-3.04,1.683-3.909
	c3.201-2.888,6.323-6.241,10.131-7.985c4.855-2.222,5.474-5.654,5.166-10.034C321.959,20,333.957,20,345.956,20z"/>
<path fill-rule="evenodd" clip-rule="evenodd" fill="#6C0FEC" d="M126.983,20c-3.296,3.096-6.762,6.036-9.826,9.347
	c-1.927,2.084-4.33,4.592-4.644,7.141c-0.945,7.653-6.365,11.571-11.792,15.307c-4.465,3.073-7.89,6.313-10.259,11.474
	c-1.923,4.189-6.253,7.259-9.443,10.889c-0.927,1.055-1.816,2.24-2.354,3.52c-2.278,5.418-5.151,9.751-10.808,12.856
	c-4.519,2.479-10.375,4.953-10.663,12.377c-0.108,2.768-3.235,6.391-5.944,7.875c-5.307,2.908-8.655,6.884-10.894,12.305
	c-0.644,1.559-2.399,2.658-3.645,3.968c-1.114-12.021-2.227-24.042-3.341-36.063c0.873-1.198,1.862-2.329,2.593-3.607
	c1.239-2.167,2.284-4.442,3.465-6.644c4.253-7.924,15.137-10.218,16.903-20.682c0.5-2.958,5.029-5.307,7.845-7.782
	c3.391-2.981,7.642-5.103,6.381-11.12c-0.333-1.591,2.185-4.295,3.996-5.725c5.359-4.227,11.064-8.012,16.516-12.126
	c0.938-0.708,1.293-2.188,1.917-3.311C104.32,20,115.651,20,126.983,20z"/>
<path fill-rule="evenodd" clip-rule="evenodd" fill="#5F0BD8" d="M309.96,20c0.308,4.379-0.311,7.812-5.166,10.034
	c-3.808,1.744-6.93,5.097-10.131,7.985c-0.964,0.869-1.411,2.53-1.683,3.909c-1.136,5.783-4.746,9.35-8.957,13.39
	c-3.752,3.599-9.428,5.787-10.814,12.726c-0.851,4.258-6.949,7.442-10.63,11.17c-1.79,1.813-3.607,3.642-5.118,5.681
	c-3.1,4.182-5.984,8.523-9.006,12.764c-0.357,0.502-1.027,1.126-1.544,1.119c-7.599-0.112-7.502,5.902-9.042,10.875
	c-0.791,2.554-2.567,4.804-3.898,7.191c-9.332-0.001-18.664-0.001-27.996-0.002c-0.844-6.969,2.716-11.036,8.626-14.017
	c2.207-1.113,4.823-3.245,5.406-5.409c1.916-7.124,7.302-10.963,12.459-15.228c1.126-0.932,1.764-2.51,2.48-3.867
	c1.318-2.498,1.981-5.618,3.894-7.469c4.366-4.227,7.77-9.633,14.437-11.372c1.718-0.447,3.107-4.456,3.527-7.012
	c0.56-3.41,1.247-6.018,5.024-7.017c1.344-0.355,2.544-1.516,3.634-2.503c1.472-1.335,2.51-3.452,4.193-4.197
	c8.316-3.683,7.821-12,10.309-18.752C289.963,20,299.962,20,309.96,20z"/>
<path fill-rule="evenodd" clip-rule="evenodd" fill="#6F11F0" d="M92.987,20c-0.624,1.123-0.979,2.603-1.917,3.311
	c-5.452,4.115-11.157,7.899-16.516,12.126c-1.811,1.429-4.33,4.133-3.996,5.725c1.261,6.017-2.99,8.139-6.381,11.12
	c-2.816,2.476-7.345,4.825-7.845,7.782c-1.766,10.464-12.65,12.758-16.903,20.682c-1.181,2.201-2.226,4.477-3.465,6.644
	c-0.731,1.278-1.72,2.409-2.593,3.607C31.246,67.331,29.121,43.666,26.996,20C48.993,20,70.99,20,92.987,20z"/>
<path fill-rule="evenodd" clip-rule="evenodd" fill="#4703AC" d="M447.869,321.963c-1.373,15.998-2.746,31.996-4.119,47.995
	c-5.999-0.779-8.951,4.781-13.698,6.759c-4.068,1.695-7.118,5.676-11.016,7.97c-7.791,4.583-14.116,11.045-22.179,15.508
	c-9.24,5.113-16.73,13.316-25.282,19.778c-5.081,3.841-10.9,6.691-16.103,10.389c-5.375,3.819-10.137,8.167-16.207,11.385
	c-9.26,4.905-16.158,13.655-25.553,18.896c-3.059,1.707-5.216,4.967-8.173,6.933c-8.937,5.942-18.144,11.48-27.076,17.429
	c-3.212,2.14-5.578,6.264-8.976,7.243c-5.449,1.571-8.53,5.38-12.268,8.835c-2.618,2.42-5.492,4.725-8.617,6.4
	c-8.334,4.469-15.67,10.065-21.632,17.425c-15.333-4.293-30.665-8.586-45.998-12.879c0.761-1.213,1.26-2.782,2.332-3.572
	c3.355-2.475,7.042-4.499,10.392-6.978c8.588-6.357,17.065-12.868,25.587-19.315c0.396-0.3,0.794-0.598,1.207-0.874
	c5.694-3.82,11.425-7.588,17.078-11.469c5.01-3.44,9.913-7.037,14.923-10.477c0.613-0.421,1.661-0.152,2.403-0.456
	c1.014-0.415,2.475-0.854,2.797-1.661c2.688-6.724,10.054-7.775,14.702-12.195c4.445-4.225,10.455-6.787,15.692-10.211
	c0.851-0.557,1.262-1.786,1.877-2.705c12.708-2.62,25.049-6.244,36.575-12.426c16.082-8.624,27.653-21.38,35.448-37.736
	c1.963-1.284,4.073-2.395,5.854-3.896c2.253-1.9,3.971-4.522,6.388-6.126c8.636-5.73,17.483-11.139,26.211-16.73
	c1.376-0.882,2.587-2.04,3.802-3.15c2.499-2.286,4.704-4.984,7.466-6.876c8.4-5.752,17.701-10.093,25.193-17.315
	C439.777,325.086,444.168,323.882,447.869,321.963z"/>
<path fill-rule="evenodd" clip-rule="evenodd" fill="#4502A7" d="M226.972,524.907c5.962-7.359,13.298-12.956,21.632-17.425
	c3.125-1.676,5.999-3.98,8.617-6.4c3.737-3.455,6.818-7.264,12.268-8.835c3.397-0.979,5.764-5.104,8.976-7.243
	c8.933-5.948,18.14-11.486,27.076-17.429c2.957-1.966,5.114-5.226,8.173-6.933c9.395-5.241,16.293-13.991,25.553-18.896
	c6.07-3.218,10.832-7.565,16.207-11.385c5.202-3.697,11.021-6.548,16.103-10.389c8.552-6.462,16.042-14.665,25.282-19.778
	c8.063-4.463,14.388-10.925,22.179-15.508c3.897-2.294,6.947-6.274,11.016-7.97c4.747-1.978,7.699-7.538,13.698-6.759
	c-1.29,13.997-2.58,27.995-3.869,41.993c-4.18,2.392-8.583,4.47-12.485,7.251c-5.632,4.014-10.817,8.646-16.351,12.807
	c-4.032,3.031-8.287,5.774-12.502,8.557c-4.788,3.159-9.644,6.215-14.465,9.323c-1.525,0.982-3.123,1.88-4.538,3.004
	c-6.345,5.041-12.508,10.323-19.001,15.162c-3.236,2.412-7.211,3.816-10.538,6.127c-2.776,1.929-4.89,4.807-7.654,6.758
	c-9.362,6.61-18.882,12.996-28.344,19.465c-8.577,5.865-17.198,11.669-25.688,17.658c-1.121,0.79-1.584,2.513-2.352,3.803
	c-11.358,3.261-22.665,6.726-34.118,9.611c-2.392,0.603-5.367-0.782-7.998-1.521C238.196,528.365,232.594,526.601,226.972,524.907z"
	/>
<path fill-rule="evenodd" clip-rule="evenodd" fill="#5B09CA" d="M69.956,481.021c-0.889-1.464-2.42-2.865-2.57-4.401
	c-1.567-16.074-2.953-32.166-4.307-48.26c-0.823-9.783-1.503-19.578-2.248-29.368c1.833,0.548,3.667,1.096,5.658,1.69
	c0-1.246,0-2.162,0-2.892c1.391,0,3.373,0.509,3.796-0.089c1.792-2.522,3.01-5.44,4.642-8.088c2.08-3.372,3.966-6.992,6.646-9.837
	c3.638-3.861,7.971-7.027,9.3-12.609c0.323-1.358,1.173-2.853,2.239-3.721c3-2.447,6.806-4.119,9.247-6.986
	c3.367-3.955,5.763-8.732,8.6-13.142c0.938-1.458,1.806-2.999,2.968-4.263c1.43-1.554,3.125-2.863,4.718-4.267
	c4.019-3.539,8.021-7.098,12.097-10.57c0.418-0.356,1.285-0.184,1.944-0.257c0.067,12.101,0.131,24.202,0.203,36.303
	c0.093,15.579,0.194,31.157,0.291,46.735c-0.161,1.646-0.322,3.293-0.482,4.938c-2.705,2.008-5.844,3.627-8.042,6.088
	c-11.024,12.35-21.817,24.906-32.661,37.417C84.624,463.948,77.301,472.495,69.956,481.021z"/>
<path fill-rule="evenodd" clip-rule="evenodd" fill="#5007BD" d="M461.132,172.031c-1.473,17.315-2.945,34.63-4.419,51.945
	c-4.634-1.357-6.552,2.551-9.513,4.691c-6.199,4.478-12.757,8.459-18.993,12.89c-6.662,4.733-13.042,9.866-19.71,14.593
	c-3.169,2.247-6.931,3.668-10.051,5.97c-6.805,5.021-13.295,10.467-20.053,15.553c-7.85,5.907-15.847,11.615-23.78,17.41
	c-9.819-11.735-22.216-19.452-35.643-22.994c8.375-6.468,17.186-13.273,25.996-20.078c1.3-0.495,2.689-0.835,3.877-1.524
	c1.515-0.879,2.841-2.078,4.293-3.074c2.07-1.42,4.242-2.701,6.256-4.196c1.706-1.266,3.154-2.882,4.88-4.118
	c6.789-4.861,13.64-9.636,20.475-14.436c2.695-1.895,5.407-3.765,8.11-5.649c3.919-2.732,7.964-5.305,11.71-8.255
	c2.565-2.021,4.476-4.893,7.094-6.821c7.028-5.176,14.209-10.154,21.465-15.008c5.301-3.545,10.786-6.817,16.246-10.119
	C453.243,176.471,457.209,174.285,461.132,172.031z"/>
<path fill-rule="evenodd" clip-rule="evenodd" fill="#4302A2" d="M285.964,521.865c0.768-1.29,1.23-3.013,2.352-3.803
	c8.489-5.989,17.11-11.793,25.688-17.658c9.462-6.469,18.981-12.854,28.344-19.465c2.765-1.951,4.878-4.829,7.654-6.758
	c3.327-2.311,7.302-3.715,10.538-6.127c6.493-4.839,12.656-10.121,19.001-15.162c1.415-1.124,3.013-2.021,4.538-3.004
	c4.821-3.108,9.677-6.164,14.465-9.323c4.215-2.782,8.47-5.525,12.502-8.557c5.533-4.16,10.719-8.793,16.351-12.807
	c3.902-2.781,8.306-4.859,12.485-7.251c-0.976,9.296-2.116,18.578-2.884,27.891c-0.86,10.428-1.382,20.883-2.05,31.327
	c-0.064,0.997-0.226,2-0.17,2.99c0.283,5.069-2.077,7.217-7.067,8.58c-42.31,11.558-84.526,23.454-126.778,35.224
	C295.966,519.346,290.954,520.568,285.964,521.865z"/>
<path fill-rule="evenodd" clip-rule="evenodd" fill="#5E0AD1" d="M132.686,323.963c-0.659,0.073-1.526-0.1-1.944,0.257
	c-4.076,3.473-8.079,7.031-12.097,10.57c-1.592,1.403-3.288,2.713-4.718,4.267c-1.162,1.264-2.031,2.805-2.968,4.263
	c-2.837,4.409-5.233,9.187-8.6,13.142c-2.441,2.867-6.246,4.539-9.247,6.986c-1.066,0.868-1.916,2.362-2.239,3.721
	c-1.329,5.582-5.663,8.748-9.3,12.609c-2.679,2.845-4.565,6.465-6.646,9.837c-1.632,2.647-2.85,5.565-4.642,8.088
	c-0.424,0.598-2.405,0.089-3.796,0.089c0,0.729,0,1.646,0,2.892c-1.991-0.595-3.824-1.143-5.658-1.69
	c-1.259-12.877-2.567-25.751-3.753-38.635c-0.502-5.454-0.747-10.933-1.109-16.398c1.327-1.259,3.859-2.588,3.79-3.764
	c-0.536-9.134,8.376-10.212,12.833-14.832c1.757-1.823,4.792-2.836,6.065-5.687c3.398-7.611,7.798-14.383,14.965-19.14
	c2.02-1.34,3.303-3.786,4.93-5.721c3.843-4.571,6.859-11.159,11.755-13.168c5.369-2.202,6.106-4.775,5.614-9.072
	c-0.554-4.822,1.549-7.472,5.857-9.043c1.452-0.53,3.604-1.451,3.855-2.552c0.917-4.036,3.957-4.418,7.052-5.01
	C132.685,278.636,132.686,301.299,132.686,323.963z"/>
<path fill-rule="evenodd" clip-rule="evenodd" fill="#610BD7" d="M132.684,255.971c-3.095,0.592-6.134,0.975-7.052,5.01
	c-0.25,1.101-2.403,2.022-3.855,2.552c-4.308,1.571-6.411,4.221-5.857,9.043c0.493,4.296-0.245,6.87-5.614,9.072
	c-4.896,2.009-7.912,8.597-11.755,13.168c-1.626,1.935-2.91,4.381-4.93,5.721c-7.167,4.757-11.567,11.528-14.965,19.14
	c-1.272,2.851-4.308,3.863-6.065,5.687c-4.456,4.62-13.368,5.698-12.833,14.832c0.069,1.176-2.463,2.505-3.79,3.764
	c-1.304-13.362-2.658-26.72-3.889-40.089c-0.546-5.941-0.843-11.905-1.253-17.859c3.994-2.815,7.826-5.906,12.026-8.366
	c4.061-2.378,6.099-5.701,7.21-10.127c1.09-4.341,3.163-7.682,7.833-9.941c4.397-2.126,8.222-5.368,9.503-11.542
	c1.014-4.885,5.667-9.016,8.715-13.474c0.083-0.121,0.309-0.248,0.433-0.22c7.096,1.638,8.183-5.489,9.811-8.694
	c2.534-4.991,4.803-8.899,10.272-10.603c1.14-0.355,2.236-1.479,2.929-2.529c2.803-4.243,5.254-8.73,8.245-12.83
	c0.995-1.363,3.219-1.829,4.88-2.706C132.685,215.31,132.685,235.641,132.684,255.971z"/>
<path fill-rule="evenodd" clip-rule="evenodd" fill="#4A04B1" d="M289.964,432.115c-0.615,0.919-1.026,2.148-1.877,2.705
	c-5.237,3.424-11.247,5.986-15.692,10.211c-4.648,4.42-12.015,5.472-14.702,12.195c-0.322,0.807-1.783,1.246-2.797,1.661
	c-0.742,0.304-1.79,0.035-2.403,0.456c-5.01,3.439-9.913,7.036-14.923,10.477c-5.652,3.881-11.383,7.648-17.078,11.469
	c-0.413,0.276-0.811,0.574-1.207,0.874c-8.522,6.447-16.999,12.958-25.587,19.315c-3.35,2.479-7.037,4.503-10.392,6.978
	c-1.072,0.79-1.571,2.359-2.332,3.572c-15.664-4.371-31.327-8.741-46.991-13.113c1.85-1.662,3.613-3.437,5.568-4.967
	c5.896-4.612,13.688-6.589,18.216-13.132c0.451-0.65,1.231-1.492,1.886-1.517c5.258-0.196,7.737-4.562,11.37-7.237
	c6.818-5.022,14.639-8.971,20.533-14.873c5.29-5.297,13.219-6.758,17.311-13.341c0.533-0.858,2.066-1.029,2.945-1.751
	c2.77-2.275,5.448-4.662,8.162-7.006c2.485-0.058,4.969-0.157,7.455-0.168C248.312,434.831,269.238,435.722,289.964,432.115z"/>
<path fill-rule="evenodd" clip-rule="evenodd" fill="#5308C2" d="M461.132,172.031c-3.923,2.254-7.889,4.44-11.76,6.782
	c-5.46,3.301-10.945,6.573-16.246,10.119c-7.256,4.854-14.437,9.832-21.465,15.008c-2.618,1.928-4.528,4.8-7.094,6.821
	c-3.746,2.951-7.791,5.523-11.71,8.255c-2.703,1.884-5.415,3.754-8.11,5.649c-6.835,4.799-13.686,9.575-20.475,14.436
	c-1.726,1.235-3.174,2.852-4.88,4.118c-2.014,1.495-4.186,2.775-6.256,4.196c-1.452,0.996-2.778,2.194-4.293,3.074
	c-1.188,0.689-2.577,1.029-3.877,1.524c3.724-6.199,7.92-12.168,11.065-18.648c5.4-11.123,5.979-23.249,5.942-35.388
	c10.709-7.213,21.517-14.285,32.096-21.684c8.437-5.898,16.051-13.204,25.021-18.051c10.531-5.691,17.906-15.629,29.097-20.132
	c0.424-0.171,0.66-0.762,1.069-1.024c5.278-3.365,10.571-6.705,15.861-10.051C463.789,142.032,462.461,157.031,461.132,172.031z"/>
<path fill-rule="evenodd" clip-rule="evenodd" fill="#4D05B7" d="M354.613,295.083c7.934-5.795,15.931-11.503,23.78-17.41
	c6.758-5.086,13.248-10.532,20.053-15.553c3.12-2.301,6.882-3.723,10.051-5.97c6.668-4.727,13.048-9.859,19.71-14.593
	c6.236-4.431,12.794-8.412,18.993-12.89c2.961-2.14,4.879-6.048,9.513-4.691c-0.91,7.742-2.003,15.469-2.676,23.231
	c-0.605,6.974-0.709,13.99-1.123,20.982c-0.116,1.951-0.552,3.882-0.841,5.822c-4.607,0.015-6.379,4.111-9.47,6.355
	c-5.042,3.663-11.375,5.788-15.79,10c-4.195,4.002-9.625,5.904-13.558,10.795c-4.512,5.609-12.265,8.611-18.607,12.748
	c-1.924,1.256-4.59,2.087-5.628,3.863c-3.841,6.574-11.333,7.453-16.826,11.378c-0.684,0.488-2.602-0.752-3.948-1.192
	C366.332,315.91,361.504,305.069,354.613,295.083z"/>
<path fill-rule="evenodd" clip-rule="evenodd" fill="#5508C7" d="M465.118,127.033c-5.29,3.346-10.583,6.686-15.861,10.051
	c-0.409,0.262-0.646,0.853-1.069,1.024c-11.19,4.503-18.565,14.441-29.097,20.132c-8.97,4.847-16.584,12.153-25.021,18.051
	c-10.579,7.399-21.387,14.471-32.096,21.684c-2.677-10.997-5.354-21.994-8.031-32.992c3.782-2.69,7.563-5.384,11.349-8.069
	c7.794-5.528,16.586-9.69,23.113-16.961c0.96-1.069,2.138-2.454,3.386-2.661c3.802-0.628,6.313-2.683,9.047-5.314
	c3.275-3.153,7.738-5.041,11.501-7.734c1.507-1.08,2.596-2.793,3.736-4.322c1.576-2.114,2.7-4.585,6.276-3.461
	c0.906,0.285,2.433-1.218,3.604-2.002c3.813-2.55,7.7-5.009,11.347-7.781c2.053-1.56,3.38-4.688,5.566-5.351
	c8.468-2.562,13.571-9.356,19.997-14.512c1.515-1.215,3.98-1.246,6.009-1.822C467.622,99.005,466.37,113.02,465.118,127.033z"/>
<path fill-rule="evenodd" clip-rule="evenodd" fill="#640CDD" d="M132.686,194.979c-1.662,0.876-3.886,1.342-4.88,2.706
	c-2.991,4.099-5.441,8.587-8.245,12.83c-0.693,1.049-1.789,2.173-2.929,2.529c-5.47,1.704-7.739,5.612-10.272,10.603
	c-1.628,3.206-2.715,10.332-9.811,8.694c-0.124-0.028-0.35,0.099-0.433,0.22c-3.048,4.458-7.702,8.589-8.715,13.474
	c-1.281,6.174-5.106,9.416-9.503,11.542c-4.67,2.26-6.743,5.6-7.833,9.941c-1.112,4.426-3.149,7.749-7.21,10.127
	c-4.201,2.46-8.033,5.551-12.026,8.366c-1.222-13.346-2.444-26.693-3.666-40.039c0.909-0.51,2.64-1.09,2.604-1.52
	c-0.587-6.868,5.42-7.362,9.365-9.193c3.42-1.586,4.68-3.443,5.025-7.038c0.197-2.051,1.965-3.995,3.184-5.884
	c0.413-0.64,1.878-0.932,1.906-1.436c0.458-8.134,9.07-7.055,12.811-11.432c0.723-0.846,2.503-1.504,2.466-2.175
	c-0.492-8.907,6.834-10.917,12.289-14.992c4.066-3.038,10.186-5.241,8.578-12.975c-0.358-1.724,3.748-5.13,6.438-6.564
	c4.451-2.372,6.805-5.36,8.945-10.155c2.103-4.709,7.795-7.815,11.912-11.625C132.685,165.648,132.685,180.313,132.686,194.979z"/>
<path fill-rule="evenodd" clip-rule="evenodd" fill="#4A04B1" d="M368.246,327.959c1.347,0.44,3.265,1.681,3.948,1.192
	c5.493-3.925,12.985-4.804,16.826-11.378c1.038-1.776,3.704-2.607,5.628-3.863c6.343-4.137,14.096-7.139,18.607-12.748
	c3.933-4.891,9.362-6.793,13.558-10.795c4.415-4.212,10.748-6.337,15.79-10c3.091-2.244,4.862-6.341,9.47-6.355
	c-1.401,15.984-2.803,31.968-4.204,47.951c-3.701,1.919-8.092,3.123-10.969,5.896c-7.492,7.223-16.793,11.563-25.193,17.315
	c-2.762,1.892-4.967,4.59-7.466,6.876c-1.215,1.11-2.426,2.269-3.802,3.15c-8.728,5.592-17.575,11-26.211,16.73
	c-2.417,1.604-4.135,4.226-6.388,6.126c-1.78,1.501-3.891,2.611-5.854,3.896C368.456,364.463,370.253,346.432,368.246,327.959z"/>
<path fill-rule="evenodd" clip-rule="evenodd" fill="#4D05B7" d="M219.973,435.092c-2.714,2.344-5.392,4.73-8.162,7.006
	c-0.878,0.722-2.412,0.893-2.945,1.751c-4.092,6.583-12.021,8.044-17.311,13.341c-5.894,5.902-13.715,9.851-20.533,14.873
	c-3.633,2.676-6.112,7.041-11.37,7.237c-0.655,0.024-1.435,0.866-1.886,1.517c-4.527,6.543-12.32,8.52-18.216,13.132
	c-1.955,1.53-3.718,3.305-5.568,4.967c-14.046-3.857-28.094-7.717-42.14-11.574c4.75-4.818,9.254-9.918,14.337-14.354
	c3.368-2.938,7.665-4.788,11.357-7.393c2.238-1.578,3.951-3.903,6.194-5.474c4.111-2.878,8.525-5.322,12.657-8.175
	c5.771-3.98,11.467-8.08,17.041-12.331c1.475-1.125,2.383-2.995,3.552-4.522C177.979,435.092,198.976,435.092,219.973,435.092z"/>
<path fill-rule="evenodd" clip-rule="evenodd" fill="#5007BD" d="M156.981,435.092c-1.168,1.527-2.077,3.397-3.552,4.522
	c-5.574,4.251-11.27,8.351-17.041,12.331c-4.132,2.853-8.546,5.297-12.657,8.175c-2.243,1.57-3.956,3.896-6.194,5.474
	c-3.692,2.604-7.989,4.454-11.357,7.393c-5.083,4.437-9.587,9.536-14.337,14.354c-7.296-2.106-14.591-4.213-21.887-6.319
	c7.345-8.526,14.668-17.073,22.04-25.577c10.844-12.511,21.637-25.067,32.661-37.417c2.197-2.461,5.336-4.08,8.042-6.088
	c0.005,7.354,0.01,14.709,0.015,22.064c-0.083,0.123-0.259,0.331-0.235,0.358c0.18,0.197,0.399,0.359,0.606,0.533
	C141.05,434.961,149.016,435.026,156.981,435.092z"/>
<path fill-rule="evenodd" clip-rule="evenodd" fill="#DDC9F5" d="M132.686,194.979c-0.001-14.666-0.001-29.331-0.002-43.996
	c0-11.108,0-22.217,0-34.142c12.817,0,25.057,0,37.296,0c11.998,0,23.997,0.001,35.995,0.001c9.333,0.001,18.665,0.001,27.996,0.002
	c3.664,0.121,7.328,0.242,10.992,0.362c-0.003,3.092-0.009,6.185-0.008,9.277c0.004,11.464,0.079,22.93-0.03,34.393
	c-0.029,3.016-0.624,6.025-0.958,9.037c-14.935,0-29.87,0-44.619,0c-0.389,1.224-0.664,1.685-0.663,2.146
	c0.031,24.634,0.085,49.269,0.137,73.904c-0.469,2.391-0.473,4.284,2.917,4.129c24.785-1.135,49.944,3.261,74.239-5.07
	c-0.517,0.997-0.856,2.149-1.576,2.967c-10.252,11.67-20.629,23.233-30.81,34.966c-3.751,4.322-7.071,9.021-10.586,13.548
	c-0.679,0.145-1.357,0.289-2.036,0.434c-10.704,0-21.407,0-32.369,0c0,2.161-0.009,3.648,0.001,5.134
	c0.074,9.962,0.152,19.925,0.229,29.887c-0.124,1.344-0.248,2.689-0.371,4.035c-1.539,1.204-3.294,2.213-4.581,3.645
	c-7.754,8.624-15.441,17.309-23.071,26.043c-8.28,9.478-16.365,19.129-24.755,28.509c-4.029,4.504-8.564,8.557-12.871,12.813
	c-0.097-15.578-0.198-31.156-0.291-46.735c-0.072-12.101-0.136-24.202-0.203-36.303c0-22.664-0.001-45.327-0.002-67.992
	C132.685,235.641,132.685,215.31,132.686,194.979z"/>
<path fill-rule="evenodd" clip-rule="evenodd" fill="#DAC8F0" d="M243.965,169.914c0.334-3.012,0.93-6.021,0.958-9.037
	c0.109-11.463,0.034-22.929,0.03-34.393c-0.001-3.092,0.005-6.185,0.008-9.277c7.668,0.224,15.336,0.447,23.004,0.67
	c12.599,2.561,25.197,5.12,37.797,7.681c9.767,5.305,19.534,10.61,29.301,15.915c5.37,6.167,10.741,12.334,16.112,18.503
	c0.23,0.678,0.461,1.356,0.691,2.035c-1.464,0.982-3.188,1.726-4.348,2.988c-5.492,5.981-10.872,12.067-16.215,18.183
	c-8.391,9.605-16.629,19.345-25.121,28.859c-3.462,3.879-7.419,7.318-11.151,10.958c0.319-5.426,1.063-10.866,0.884-16.275
	c-0.673-20.369-12.528-32.688-32.949-34.655C256.634,171.35,250.299,170.631,243.965,169.914z"/>
<path fill-rule="evenodd" clip-rule="evenodd" fill="#FDFDFE" d="M295.033,222.998c3.732-3.639,7.689-7.078,11.151-10.958
	c8.492-9.514,16.73-19.254,25.121-28.859c5.343-6.116,10.723-12.202,16.215-18.183c1.159-1.262,2.884-2.005,4.348-2.988
	c0.691,0.991,1.383,1.982,2.075,2.973c2.677,10.998,5.354,21.996,8.031,32.992c0.036,12.139-0.542,24.266-5.942,35.388
	c-3.146,6.479-7.342,12.449-11.065,18.648c-8.811,6.805-17.621,13.609-25.996,20.078c13.427,3.542,25.823,11.258,35.643,22.994
	c6.891,9.986,11.719,20.827,13.633,32.876c2.007,18.473,0.21,36.504-6.259,53.994c-7.795,16.356-19.366,29.112-35.448,37.736
	c-11.526,6.182-23.867,9.806-36.575,12.426c-20.726,3.606-41.652,2.716-62.536,2.809c-2.486,0.011-4.97,0.11-7.455,0.168
	c-20.998,0-41.995,0-62.992,0c-7.965-0.065-15.931-0.131-23.896-0.196c-0.085-0.313-0.209-0.611-0.372-0.892
	c-0.005-7.355-0.01-14.71-0.015-22.064c0.161-1.646,0.322-3.292,0.482-4.938c4.307-4.256,8.842-8.309,12.871-12.813
	c8.39-9.38,16.475-19.031,24.755-28.509c7.63-8.734,15.317-17.419,23.071-26.043c1.287-1.432,3.042-2.44,4.581-3.645
	c0.12,7.986,0.239,15.972,0.359,23.958c-0.175,7.028-0.349,14.057-0.523,21.085c0.183,0.321,0.365,0.643,0.548,0.963
	c8.709-0.037,17.419-0.075,26.128-0.113c14.111-0.28,28.419,0.838,42.292-1.125c31.586-4.469,41.07-29.584,33.802-55.833
	c-2.253-10.961-8.298-18.84-18.781-23.111c-6.16-1.622-12.244-4.121-18.498-4.665c-10.202-0.888-20.516-0.498-30.783-0.647
	c3.516-4.526,6.835-9.226,10.586-13.548c10.181-11.733,20.558-23.296,30.81-34.966c0.72-0.818,1.06-1.971,1.576-2.967
	C285.09,240.071,291.746,232.991,295.033,222.998z"/>
<path fill-rule="evenodd" clip-rule="evenodd" fill="#5B09CA" d="M132.713,434.004c0.163,0.28,0.287,0.578,0.372,0.892
	c-0.207-0.174-0.427-0.336-0.606-0.533C132.454,434.335,132.629,434.127,132.713,434.004z"/>
<path fill-rule="evenodd" clip-rule="evenodd" fill="#5909CA" d="M295.033,222.998c-3.287,9.993-9.943,17.073-19.058,22.024
	c-24.295,8.331-49.454,3.935-74.239,5.07c-3.39,0.155-3.386-1.738-2.916-4.129c3.99,0.608,6.761-1.745,7.831-4.854
	c2.647-7.693,8.599-12.605,13.847-18.165c1.707-1.808,4.542-3.433,4.892-5.479c1.08-6.295,7.039-7.795,10.333-11.819
	c2.875-3.513,5.943-6.871,8.993-10.238c4.104-4.53,7.775-9.659,12.572-13.289c3.716-2.812,6.128-5.349,5.68-10.05
	c20.421,1.966,32.276,14.286,32.949,34.655C296.096,212.132,295.353,217.572,295.033,222.998z"/>
<path fill-rule="evenodd" clip-rule="evenodd" fill="#5D0BD0" d="M262.968,172.068c0.448,4.701-1.964,7.238-5.68,10.05
	c-4.797,3.63-8.468,8.759-12.572,13.289c-3.05,3.367-6.118,6.725-8.993,10.238c-3.293,4.024-9.253,5.523-10.333,11.819
	c-0.351,2.046-3.185,3.671-4.892,5.479c-5.249,5.56-11.2,10.472-13.847,18.165c-1.07,3.109-3.841,5.462-7.831,4.854
	c-0.052-24.635-0.106-49.27-0.137-73.904c0-0.461,0.274-0.922,0.663-2.146c14.749,0,29.684,0,44.619,0
	C250.299,170.631,256.634,171.35,262.968,172.068z"/>
<path fill-rule="evenodd" clip-rule="evenodd" fill="#5308C2" d="M233.003,296.503c10.267,0.149,20.581-0.24,30.783,0.647
	c6.254,0.544,12.338,3.043,18.498,4.665c-2.324,1.503-4.71,2.922-6.955,4.535c-2.267,1.628-4.155,4.131-6.646,5.002
	c-2.75,0.961-4.396,2.802-6.525,4.29c-4.179,2.921-8.905,4.868-10.938,10.047c-0.036,0.094-0.324,0.063-0.458,0.147
	c-3.838,2.441-7.651,4.923-11.514,7.325c-2.741,1.705-5.738,3.057-8.284,5.006c-4.443,3.401-8.394,7.068-13.899,9.354
	c-5.044,2.095-8.729,7.344-13.235,10.923c-1.269,1.008-3.321,1.03-5.013,1.505c-0.12-7.986-0.24-15.972-0.359-23.958
	c0.124-1.346,0.248-2.691,0.371-4.035c1.258-0.709,2.806-1.153,3.725-2.167c6.558-7.236,13.029-14.551,19.437-21.92
	c3.093-3.557,5.99-7.283,8.976-10.934C231.646,296.792,232.325,296.647,233.003,296.503z"/>
<path fill-rule="evenodd" clip-rule="evenodd" fill="#5508C7" d="M230.967,296.937c-2.985,3.65-5.883,7.377-8.976,10.934
	c-6.408,7.369-12.879,14.684-19.437,21.92c-0.919,1.014-2.467,1.458-3.725,2.167c-0.077-9.962-0.155-19.925-0.229-29.887
	c-0.011-1.485-0.001-2.973-0.001-5.134C209.56,296.937,220.264,296.937,230.967,296.937z"/>
<path fill-rule="evenodd" clip-rule="evenodd" fill="#5007BD" d="M198.818,359.95c1.692-0.475,3.744-0.497,5.013-1.505
	c4.506-3.579,8.191-8.828,13.235-10.923c5.505-2.286,9.456-5.953,13.899-9.354c2.545-1.949,5.542-3.301,8.284-5.006
	c3.862-2.402,7.675-4.884,11.514-7.325c0.134-0.085,0.422-0.054,0.458-0.147c2.032-5.179,6.759-7.126,10.938-10.047
	c2.129-1.488,3.775-3.329,6.525-4.29c2.49-0.871,4.379-3.374,6.646-5.002c2.245-1.613,4.631-3.032,6.955-4.535
	c10.483,4.271,16.528,12.15,18.781,23.111c-4.47,2.873-9.186,5.432-13.358,8.685c-8.504,6.631-16.141,14.42-26.328,18.71
	c-1.591,0.67-2.902,2.095-4.22,3.304c-4.45,4.083-8.557,8.605-13.336,12.249c-5.666,4.32-11.913,7.876-17.846,11.856
	c-0.564,0.377-0.682,1.42-1.006,2.154c-8.709,0.038-17.419,0.076-26.128,0.113c-0.183-0.32-0.366-0.642-0.548-0.963
	C198.469,374.007,198.643,366.979,198.818,359.95z"/>
<path fill-rule="evenodd" clip-rule="evenodd" fill="#4D05B7" d="M224.971,381.885c0.325-0.734,0.442-1.777,1.006-2.154
	c5.933-3.98,12.18-7.536,17.846-11.856c4.779-3.644,8.886-8.166,13.336-12.249c1.317-1.209,2.629-2.634,4.22-3.304
	c10.188-4.29,17.824-12.079,26.328-18.71c4.173-3.253,8.889-5.812,13.358-8.685c7.269,26.249-2.216,51.364-33.802,55.833
	C253.391,382.723,239.082,381.604,224.971,381.885z"/>
<path fill-rule="evenodd" clip-rule="evenodd" fill="#DDC9F5" d="M198.294,381.035c0.183,0.321,0.366,0.643,0.548,0.963
	C198.66,381.678,198.477,381.356,198.294,381.035z"/>
</svg>
