<?xml version="1.0" encoding="utf-8"?>
<!-- Generator: Adobe Illustrator 16.0.0, SVG Export Plug-In . SVG Version: 6.00 Build 0)  -->
<!DOCTYPE svg PUBLIC "-//W3C//DTD SVG 1.1//EN" "http://www.w3.org/Graphics/SVG/1.1/DTD/svg11.dtd">
<svg version="1.1" id="Layer_1" xmlns="http://www.w3.org/2000/svg" xmlns:xlink="http://www.w3.org/1999/xlink" x="0px" y="0px"
	 width="400px" height="400px" viewBox="0 0 400 400" enable-background="new 0 0 400 400" xml:space="preserve">
<path fill="#FEFEFD" d="M347.296,210.668c-9.778,6.52-18.502,12.337-27.601,18.401c-1.396-1.981-2.623-3.776-3.904-5.534
	c-5.561-7.63-13.264-10.372-22.301-8.991c-6.067,0.927-10.514,4.344-12.188,10.682c-1.689,6.387-0.096,11.978,5.018,15.854
	c4.141,3.14,8.982,5.413,13.668,7.765c11.102,5.574,22.644,10.364,33.354,16.593c11.729,6.82,19.641,17.009,22.252,30.857
	c5.352,28.365-7.857,50.517-35.728,57.494c-24.54,6.146-47.894,3.139-68.392-13.063c-6.59-5.209-11.58-11.785-15.633-19.855
	c9.377-5.463,18.559-10.812,28.123-16.383c1.721,2.306,3.357,4.585,5.084,6.798c9.59,12.299,25.37,17.261,39.848,12.619
	c6.928-2.22,11.976-6.367,12.854-13.878c0.854-7.283-2.717-12.883-8.946-16.171c-8.443-4.457-17.209-8.311-25.902-12.272
	c-11.401-5.194-22.689-10.666-30.522-20.876c-11.194-14.592-13.296-30.997-6.92-47.957c6.317-16.807,19.829-25.319,37.054-28.05
	c16.827-2.67,32.992-0.791,46.621,10.434C338.314,199.401,342.309,205.111,347.296,210.668z"/>
<path fill="#FEFEFD" d="M113.356,324.551c9.503-5.723,18.759-11.295,28.23-16.997c2.171,3.248,4.052,6.369,6.232,9.265
	c5.84,7.756,14.715,10.396,23.941,7.417c6.534-2.109,9.097-7.188,9.944-13.367c0.541-3.942,0.708-7.966,0.714-11.954
	c0.052-35.669,0.03-71.341,0.03-107.01c0-1.891,0-3.781,0-5.981c11.718,0,22.979,0,34.614,0c0.09,1.615,0.25,3.159,0.248,4.704
	c-0.006,39.188,0.039,78.379-0.07,117.567c-0.077,28.405-19.424,47.652-47.904,48.293c-15.164,0.34-29.212-2.508-41.225-12.364
	C121.718,338.876,117,332.366,113.356,324.551z"/>
<path fill-rule="evenodd" clip-rule="evenodd" fill="#EF5133" d="M0.25,400.25c0-133.333,0-266.667,0-400c133.333,0,266.666,0,400,0
	c0,133.333,0,266.666,0,400C266.917,400.25,133.583,400.25,0.25,400.25z M209.469,168.767c-0.045,0.002-0.088,0.005-0.133,0.007
	c-0.02,0.255-0.056,0.509-0.056,0.764c-0.003,21.958,0.001,43.916-0.022,65.874c0,0.79,0.305,1.169,0.949,1.537
	c4.244,2.429,7.221,5.923,8.672,10.628c1.716,5.566,1.085,10.941-1.844,15.912c-4.72,8.01-15.326,11.427-24.091,7.358
	c-7.927-3.681-12.724-12.209-10.868-21.083c1.271-6.083,4.857-10.67,10.548-13.42c0.746-0.361,1.032-0.748,1.031-1.588
	c-0.023-22.124-0.022-44.249-0.004-66.373c0-0.771-0.23-1.188-0.947-1.522c-8.272-3.856-13.319-13.708-9.932-23.331
	c0.361-1.028,0.158-1.653-0.586-2.394c-8.803-8.757-17.574-17.545-26.355-26.323c-0.283-0.283-0.58-0.552-0.889-0.844
	c-0.314,0.287-0.536,0.473-0.74,0.677c-24.6,24.603-49.194,49.209-73.803,73.803c-2.271,2.269-3.906,4.957-4.551,8.029
	c-1.171,5.576,0.177,10.653,4.245,14.727c36.36,36.411,72.757,72.786,109.141,109.174c1.952,1.953,4.265,3.391,6.901,4.058
	c6.037,1.526,11.451,0.172,15.887-4.259c36.08-36.042,72.125-72.121,108.203-108.167c6.541-6.534,6.043-16.956-0.076-23.038
	c-15.635-15.536-31.178-31.164-46.764-46.749c-20.624-20.623-41.26-41.234-61.875-61.866c-3.599-3.601-8.01-5.141-12.952-4.791
	c-4.104,0.291-7.568,2.239-10.491,5.202c-7.168,7.266-14.4,14.469-21.606,21.698c-0.135,0.135-0.258,0.284-0.432,0.476
	c9.451,9.441,18.851,18.835,28.27,28.211c0.215,0.214,0.654,0.333,0.968,0.299c1.401-0.15,2.792-0.5,4.192-0.537
	c1.88-0.05,3.845-0.193,5.637,0.253c7.44,1.853,12.378,6.45,14.089,14.033c0.518,2.298,0.854,4.872,0.342,7.105
	c-0.614,2.671-0.161,4.31,1.811,6.222c8.224,7.976,16.252,16.154,24.372,24.238c0.34,0.338,0.889,0.666,1.332,0.657
	c0.847-0.018,1.685-0.308,2.533-0.442c4.681-0.741,9.118-0.097,13.211,2.391c6.515,3.959,10.21,12.082,8.552,20.146
	c-1.793,8.709-9.12,14.428-17.439,15.196c-3.994,0.369-7.731-0.722-11.125-2.896c-5.622-3.602-8.658-8.847-9.187-15.389
	c-0.188-2.327,0.437-4.785,1.062-7.083c0.299-1.102-0.054-1.559-0.658-2.164c-7.807-7.807-15.613-15.616-23.424-23.421
	C210.217,169.413,209.834,169.098,209.469,168.767z"/>
<path fill-rule="evenodd" clip-rule="evenodd" fill="#FEFEFE" d="M209.469,168.767c0.365,0.331,0.748,0.646,1.096,0.995
	c7.811,7.805,15.617,15.614,23.424,23.421c0.604,0.604,0.957,1.062,0.658,2.164c-0.625,2.298-1.249,4.756-1.062,7.083
	c0.528,6.542,3.564,11.787,9.187,15.389c3.394,2.174,7.131,3.265,11.125,2.896c8.319-0.769,15.646-6.487,17.439-15.196
	c1.658-8.063-2.037-16.186-8.552-20.146c-4.093-2.488-8.53-3.132-13.211-2.391c-0.849,0.134-1.687,0.424-2.533,0.442
	c-0.443,0.009-0.992-0.319-1.332-0.657c-8.12-8.084-16.148-16.262-24.372-24.238c-1.972-1.912-2.425-3.551-1.811-6.222
	c0.513-2.233,0.176-4.808-0.342-7.105c-1.711-7.583-6.648-12.181-14.089-14.033c-1.792-0.446-3.757-0.303-5.637-0.253
	c-1.401,0.037-2.791,0.387-4.192,0.537c-0.313,0.034-0.752-0.084-0.968-0.299c-9.419-9.375-18.818-18.77-28.27-28.211
	c0.174-0.192,0.297-0.34,0.432-0.476c7.206-7.229,14.438-14.432,21.606-21.698c2.923-2.963,6.388-4.911,10.491-5.202
	c4.942-0.351,9.354,1.189,12.952,4.791c20.615,20.631,41.251,41.243,61.875,61.866c15.586,15.585,31.129,31.213,46.764,46.749
	c6.119,6.082,6.617,16.504,0.076,23.038c-36.078,36.046-72.123,72.125-108.203,108.167c-4.436,4.431-9.85,5.785-15.887,4.259
	c-2.637-0.667-4.949-2.104-6.901-4.058c-36.384-36.388-72.78-72.763-109.141-109.174c-4.067-4.073-5.416-9.15-4.245-14.727
	c0.645-3.072,2.281-5.76,4.551-8.029c24.608-24.593,49.203-49.2,73.803-73.803c0.204-0.204,0.426-0.391,0.74-0.677
	c0.309,0.292,0.606,0.561,0.889,0.844c8.781,8.778,17.553,17.566,26.355,26.323c0.744,0.74,0.947,1.366,0.586,2.394
	c-3.387,9.623,1.659,19.475,9.932,23.331c0.717,0.335,0.947,0.752,0.947,1.522c-0.018,22.124-0.019,44.249,0.004,66.373
	c0.001,0.84-0.285,1.227-1.031,1.588c-5.69,2.75-9.276,7.337-10.548,13.42c-1.856,8.874,2.941,17.402,10.868,21.083
	c8.765,4.068,19.371,0.651,24.091-7.358c2.929-4.971,3.56-10.346,1.844-15.912c-1.451-4.705-4.428-8.199-8.672-10.628
	c-0.645-0.368-0.949-0.747-0.949-1.537c0.023-21.958,0.02-43.916,0.022-65.874c0-0.254,0.036-0.509,0.056-0.764l0.067,0.018
	L209.469,168.767z"/>
<path fill-rule="evenodd" clip-rule="evenodd" fill="#FBDAD4" d="M209.469,168.767l-0.065,0.024l-0.067-0.018
	C209.381,168.772,209.424,168.769,209.469,168.767z"/>
</svg>
