<?xml version="1.0" encoding="utf-8"?>
<!-- Generator: Adobe Illustrator 16.0.0, SVG Export Plug-In . SVG Version: 6.00 Build 0)  -->
<!DOCTYPE svg PUBLIC "-//W3C//DTD SVG 1.1//EN" "http://www.w3.org/Graphics/SVG/1.1/DTD/svg11.dtd">
<svg version="1.1" id="Layer_1" xmlns="http://www.w3.org/2000/svg" xmlns:xlink="http://www.w3.org/1999/xlink" x="0px" y="0px"
	 width="1000px" height="792px" viewBox="0 0 1000 792" enable-background="new 0 0 1000 792" xml:space="preserve">
<path fill-rule="evenodd" clip-rule="evenodd" fill="#C05C31" d="M630.938,81c-1.482,13.378-2.924,26.76-4.454,40.132
	c-2.153,18.821-4.37,37.634-6.563,56.45c-2.213,18.982-4.443,37.961-6.639,56.945c-2.138,18.489-4.221,36.984-6.361,55.472
	c-2.199,18.982-4.457,37.957-6.652,56.94c-2.139,18.489-4.211,36.987-6.348,55.477c-2.193,18.984-4.446,37.961-6.641,56.943
	c-1.164,10.07-2.375,20.137-3.33,30.227c-0.445,4.696-1.594,7.936-6.539,10.388c-60.418,29.941-120.672,60.21-180.975,90.381
	c-1.33,0.666-2.73,1.19-4.098,1.781c-0.552,0.085-1.104,0.171-1.657,0.256c0,0-0.18-0.029-0.178-0.031
	c0.155-1.981,0.438-3.962,0.441-5.94c0.035-21.468,0.025-42.935,0.028-64.401c2.073-1.046,4.143-2.099,6.22-3.137
	c40.684-20.336,81.38-40.647,122.018-61.077c1.842-0.926,4.313-2.749,4.534-4.415c2.289-17.27,4.216-34.587,6.163-51.899
	c1.798-15.997,3.418-32.014,5.258-48.006c2.504-21.757,5.176-43.496,7.701-65.252c0.582-5.008,0.862-10.052,1.317-15.509
	c-2.651,0-4.464,0-6.275,0c-24.327,0.003-48.655,0.042-72.982,0c-24.655-0.042-49.309-0.164-73.964-0.251
	c-0.003-21.102-0.006-42.204-0.009-63.305c1.995-0.06,3.989-0.171,5.984-0.171c49.794-0.013,99.588-0.015,149.383-0.018
	c1.808,0,3.614,0,5.892,0c2.416-21.398,4.787-42.412,7.197-63.762c-2.184-0.127-3.645-0.286-5.105-0.286
	c-27.146-0.014-54.291,0.021-81.436-0.014c-27.307-0.035-54.613-0.135-81.92-0.207c0.007-21.236,0.014-42.474,0.021-63.71
	C470.958,81,550.947,81,630.938,81z"/>
<path fill-rule="evenodd" clip-rule="evenodd" fill="#DB7246" d="M390.968,81c-0.007,21.236-0.014,42.474-0.021,63.71l0.03,0.455
	c-0.995-0.065-1.989-0.189-2.983-0.189c-53.779-0.012-107.558-0.015-161.337-0.005c-1.127,0-2.253,0.167-3.945,0.302
	c7.415,64.07,14.795,127.854,22.195,191.801c12.91,0,25.05,0.014,37.19-0.002c36.292-0.047,72.585-0.105,108.879-0.159
	c-0.038,0.187-0.05,0.374-0.037,0.563c0.004,37.447,0.009,74.895,0.013,112.342l0.045,0.495
	c-20.811-10.466-41.388-21.439-62.546-31.147c-8.341-3.827-11.222-8.943-11.702-17.542c-0.607-10.87-2.508-21.668-3.834-32.354
	c-21.707,0-42.79,0-64.164,0c0.202,2.673,0.296,4.997,0.564,7.3c2.849,24.462,5.871,48.904,8.454,73.395
	c0.45,4.27,2.038,6.355,5.726,8.166c22.257,10.922,44.381,22.111,66.58,33.152c20.258,10.076,40.554,20.076,60.833,30.11
	c-0.014,0.211,0.007,0.42,0.063,0.625c-0.002,21.467,0.007,42.934-0.028,64.401c-0.003,1.979-0.286,3.959-0.441,5.94
	c-19.382-9.589-38.792-19.117-58.134-28.784c-43.006-21.497-85.964-43.088-128.99-64.544c-2.929-1.461-4.466-3.028-4.849-6.553
	c-2.688-24.808-5.666-49.584-8.547-74.37c-3.189-27.431-6.381-54.861-9.56-82.293c-2.813-24.288-5.619-48.578-8.413-72.869
	c-2.814-24.459-5.592-48.921-8.419-73.379c-3.17-27.433-6.38-54.862-9.567-82.294c-1.018-8.757-2.019-17.516-3.026-26.274
	C230.988,81,310.978,81,390.968,81z"/>
<path fill-rule="evenodd" clip-rule="evenodd" fill="#DB7246" d="M390.68,592.392c0.553-0.085,1.105-0.171,1.657-0.256
	C391.786,592.221,391.233,592.307,390.68,592.392z"/>
<path fill-rule="evenodd" clip-rule="evenodd" fill="#D6D7D7" d="M390.972,522.019c-0.055-0.205-0.076-0.414-0.063-0.627
	c0.029-23.693,0.059-47.386,0.088-71.078l-0.045-0.495c0.166,0.009,0.364,0.081,0.495,0.017
	c23.499-11.721,47.004-23.428,70.443-35.266c1.018-0.515,1.886-2.195,2.036-3.429c2.404-19.767,4.71-39.547,6.964-59.332
	c0.534-4.688,0.796-9.407,1.201-14.332c-27.57,0-54.361,0-81.152,0c-0.013-0.189-0.001-0.377,0.037-0.563
	c0-21.293,0-42.586,0.001-63.88c-0.053-0.186-0.058-0.372-0.015-0.561c24.654,0.087,49.309,0.209,73.963,0.251
	c24.327,0.042,48.655,0.003,72.982,0c1.812,0,3.624,0,6.275,0c-0.455,5.457-0.735,10.501-1.317,15.509
	c-2.525,21.756-5.197,43.495-7.701,65.252c-1.84,15.992-3.46,32.009-5.258,48.006c-1.947,17.313-3.874,34.63-6.163,51.899
	c-0.221,1.666-2.692,3.489-4.534,4.415c-40.638,20.43-81.333,40.741-122.018,61.077C395.115,519.92,393.044,520.973,390.972,522.019
	z"/>
<path fill-rule="evenodd" clip-rule="evenodd" fill="#D6D7D7" d="M390.947,144.71c27.307,0.072,54.613,0.172,81.92,0.207
	c27.145,0.034,54.291,0,81.436,0.014c1.461,0,2.922,0.159,5.105,0.286c-2.41,21.35-4.781,42.364-7.197,63.762
	c-2.277,0-4.084,0-5.892,0c-49.795,0.003-99.589,0.005-149.383,0.018c-1.995,0-3.989,0.111-5.984,0.171l0.032-0.436
	c-0.003-21.189-0.005-42.377-0.008-63.566L390.947,144.71z"/>
<path fill-rule="evenodd" clip-rule="evenodd" fill="#DB7347" d="M390.953,209.167c0.003,21.102,0.006,42.204,0.009,63.305
	c-0.043,0.188-0.038,0.375,0.015,0.561c-29.582,0-59.164,0-88.905,0c-2.604-21.708-5.111-42.614-7.69-64.12
	c2.576,0,4.37,0.003,6.163-0.001c30.147-0.06,60.294-0.12,90.441-0.181L390.953,209.167z"/>
<path fill-rule="evenodd" clip-rule="evenodd" fill="#FDFCFC" d="M390.985,208.732c-30.147,0.061-60.294,0.121-90.441,0.181
	c-1.793,0.004-3.586,0.001-6.163,0.001c2.58,21.506,5.087,42.412,7.69,64.12c29.742,0,59.323,0,88.905,0
	c0,21.293-0.001,42.586-0.001,63.88c-36.293,0.054-72.586,0.112-108.879,0.159c-12.14,0.016-24.28,0.002-37.19,0.002
	c-7.4-63.947-14.781-127.731-22.195-191.801c1.692-0.135,2.818-0.302,3.945-0.302c53.779-0.01,107.558-0.007,161.337,0.005
	c0.994,0,1.989,0.124,2.983,0.189C390.979,166.354,390.982,187.543,390.985,208.732z"/>
<path fill-rule="evenodd" clip-rule="evenodd" fill="#FDFCFC" d="M390.998,450.313c-0.03,23.692-0.059,47.385-0.088,71.078
	c-20.279-10.032-40.575-20.032-60.833-30.108c-22.198-11.041-44.323-22.23-66.58-33.152c-3.688-1.811-5.276-3.896-5.726-8.166
	c-2.583-24.49-5.605-48.933-8.454-73.395c-0.268-2.303-0.362-4.627-0.564-7.3c21.374,0,42.457,0,64.164,0
	c1.326,10.686,3.227,21.483,3.834,32.354c0.48,8.599,3.36,13.715,11.702,17.542C349.609,428.874,370.187,439.848,390.998,450.313z"
	/>
<path fill-rule="evenodd" clip-rule="evenodd" fill="#C05C31" d="M390.939,337.477c26.791,0,53.582,0,81.152,0
	c-0.405,4.925-0.667,9.645-1.201,14.332c-2.253,19.785-4.56,39.565-6.964,59.332c-0.15,1.233-1.018,2.914-2.036,3.429
	c-23.439,11.838-46.945,23.545-70.443,35.266c-0.13,0.064-0.329-0.008-0.495-0.017C390.948,412.371,390.943,374.924,390.939,337.477
	z"/>
<path fill-rule="evenodd" clip-rule="evenodd" fill="#4986A9" d="M832.94,219.95c-0.097,0.714-0.193,1.427-0.29,2.14
	c-0.274-0.02-0.547-0.06-0.815-0.12c-1.883-0.336-3.765-0.959-5.647-0.964c-24.814-0.07-49.63-0.055-74.444-0.06
	c-103.589-0.017-207.178-0.032-310.768-0.049c0.007-0.315,0.012-0.632,0.015-0.947C571.641,219.95,702.291,219.95,832.94,219.95z"/>
<path fill-rule="evenodd" clip-rule="evenodd" fill="#538EAF" d="M440.99,219.95c-0.003,0.315-0.008,0.632-0.014,0.947
	c-14.648,0.022-29.296,0.008-43.943,0.114c-1.707,0.013-3.409,0.692-5.113,1.063c-0.309-0.708-0.616-1.417-0.924-2.125
	C407.661,219.95,424.326,219.95,440.99,219.95z"/>
<path fill-rule="evenodd" clip-rule="evenodd" fill="#1C74B9" d="M831.835,221.97c0.269,0.061,0.541,0.101,0.815,0.12
	c-0.292,0.963-0.584,1.926-0.877,2.887c-0.016,1.313-0.03,2.624-0.045,3.935c-1.089,13.703-2.113,27.41-3.287,41.104
	c-1.103,12.876-2.381,25.739-3.551,38.609c-1.634,17.973-3.256,35.946-4.85,53.922c-1.069,12.055-2.06,24.115-3.121,36.169
	c-1.973,22.404-4.008,44.803-5.945,67.209c-1.099,12.696-1.972,25.41-3.096,38.102c-1.913,21.591-3.984,43.167-5.909,64.756
	c-1.104,12.375-2.03,24.767-3.073,37.146c-1.752,20.8-3.458,41.605-5.454,62.383c-0.146,1.52-2.229,3.652-3.817,4.116
	c-26.373,7.727-52.803,15.258-79.234,22.782c-25.484,7.254-50.99,14.429-76.471,21.69c-4.896,1.396-9.638,3.506-14.61,4.412
	c-4.037,0.736-8.559,1.069-12.444,0.021c-23.181-6.257-46.238-12.968-69.338-19.521c-19.598-5.56-39.18-11.178-58.803-16.646
	c-15.366-4.282-30.771-8.424-46.191-12.51c-3.175-0.84-4.379-2.286-4.61-5.799c-1.462-22.179-3.247-44.336-4.968-66.497
	c-0.948-12.215-1.891-24.431-2.988-36.632c-1.451-16.128-3.1-32.237-4.566-48.363c-0.585-6.436-0.833-12.902-1.368-19.343
	c-1.492-17.948-3.071-35.891-4.582-53.839c-0.513-6.104-0.875-12.219-1.391-18.322c-1.599-18.931-3.26-37.855-4.851-56.787
	c-0.722-8.583-1.32-17.176-1.999-25.762c-1.371-17.344-2.716-34.689-4.15-52.027c-1.516-18.308-3.135-36.609-4.677-54.915
	c-0.152-1.817-0.08-3.653-0.112-5.48c0.256-1.657,0.511-3.314,0.766-4.971c24.278-0.324,48.555-0.728,72.834-0.917
	c5.952-0.047,11.912,0.927,17.863,0.879c24.779-0.196,49.556-0.709,74.335-0.873c8.117-0.054,16.239,0.851,24.36,0.884
	c28.399,0.117,56.8,0.047,85.2,0.046c52.138,0,104.276,0.014,156.414-0.083c1.296-0.003,2.59-1.233,3.885-1.892
	C829.229,221.966,830.532,221.968,831.835,221.97z M612.983,314.917c-42.441,0.006-84.884,0-127.326,0.061
	c-1.891,0.004-3.781,0.631-5.672,0.969c-2.668,0-5.336,0-8.005,0.002c-0.316,0.027-0.632,0.057-0.947,0.084
	c-0.096,1.436-0.435,2.9-0.249,4.298c1.984,15.015,4.269,29.995,5.961,45.042c0.488,4.342,1.852,5.412,6.092,5.393
	c39.816-0.191,79.634-0.148,119.451-0.174c1.715,0,3.43,0,5.145,0c-9.802,5.551-19.773,9.934-29.766,14.27
	c-31.131,13.512-62.252,27.048-93.434,40.441c-3.276,1.407-4.347,2.831-3.611,6.621c1.582,8.156,2.292,16.477,3.561,24.701
	c1.158,7.51,2.581,14.979,3.887,22.467c1.919,0.273,3.838,0.785,5.757,0.787c37.437,0.048,74.872,0.035,112.309,0.036
	c6.836,0,6.838,0.003,6.84,6.604c0.011,25.789,0.02,51.579,0.028,77.367c-2.759,0.245-5.692,1.226-8.249,0.617
	c-17.476-4.158-34.893-8.572-52.258-13.172c-1.496-0.396-3.253-2.586-3.557-4.194c-1.021-5.384-1.417-10.883-2.086-16.334
	c-0.887-7.228-1.805-14.451-2.717-21.737c-18.261,0-35.993,0-53.95,0c0,1.476-0.084,2.618,0.013,3.745
	c2.249,26.375,4.461,52.754,6.938,79.108c0.137,1.456,2.273,3.456,3.858,3.927c12.271,3.64,24.626,6.99,36.97,10.381
	c25.321,6.956,50.65,13.881,75.977,20.818c-0.322,1.604-0.915,3.205-0.923,4.81c-0.073,14.33-0.056,28.661-0.021,42.991
	c0.003,1.237,0.312,2.474,0.461,3.582c0.775,0.133,1.129,0.306,1.411,0.227c28.708-8.09,57.425-16.145,86.106-24.324
	c17.681-5.044,35.275-10.388,52.971-15.379c7.999-2.257,8.692-3.171,9.073-11.692c0.406-9.092,1.307-18.163,2.102-27.233
	c1.227-14.003,2.594-27.995,3.812-41.998c0.817-9.403,1.369-18.828,2.239-28.226c1.157-12.51,2.611-24.991,3.74-37.503
	c0.863-9.563,1.32-19.164,2.135-28.733c1.22-14.336,2.618-28.658,3.892-42.99c0.454-5.113,0.669-10.25,1.158-15.36
	c1.232-12.837,2.65-25.655,3.816-38.497c0.853-9.398,1.342-18.828,2.141-28.232c1.231-14.502,2.605-28.992,3.888-43.491
	c0.773-8.737,1.049-17.55,2.415-26.193c0.65-4.113-0.123-4.91-3.932-4.905c-57.656,0.07-115.312,0.075-172.967-0.017
	c-3.497-0.006-4.59,1.044-4.553,4.547C613.069,283.923,612.98,299.421,612.983,314.917z"/>
<path fill-rule="evenodd" clip-rule="evenodd" fill="#216DAD" d="M831.835,221.97c-1.303-0.002-2.605-0.004-3.907-0.006
	c-95.563-0.006-191.124-0.014-286.686-0.018c-47.615-0.002-95.229-0.02-142.844,0.086c-1.789,0.004-3.575,1.231-5.362,1.888
	c-0.255,1.657-0.51,3.314-0.766,4.971c-0.117-2.272-0.234-4.544-0.352-6.816c1.705-0.371,3.407-1.05,5.114-1.063
	c14.647-0.106,29.295-0.092,43.943-0.114c103.589,0.017,207.178,0.032,310.767,0.049c24.814,0.005,49.63-0.011,74.444,0.06
	C828.07,221.011,829.952,221.634,831.835,221.97z"/>
<path fill-rule="evenodd" clip-rule="evenodd" fill="#216DAD" d="M831.729,228.913c0.015-1.311,0.029-2.623,0.045-3.935
	C831.758,226.289,831.743,227.602,831.729,228.913z"/>
<path fill-rule="evenodd" clip-rule="evenodd" fill="#FCFDFD" d="M488.069,479.091c-1.306-7.488-2.729-14.957-3.887-22.467
	c-1.269-8.225-1.979-16.545-3.561-24.701c-0.735-3.79,0.335-5.214,3.611-6.621c31.182-13.394,62.303-26.93,93.434-40.441
	c9.992-4.336,19.964-8.719,29.766-14.27c-1.715,0-3.43,0-5.145,0c-39.817,0.025-79.635-0.018-119.451,0.174
	c-4.24,0.02-5.604-1.051-6.092-5.393c-1.692-15.047-3.977-30.027-5.961-45.042c-0.186-1.397,0.153-2.862,0.248-4.298l0.485,0.078
	l0.463-0.162c2.669-0.002,5.337-0.002,8.005-0.002c1.821,0.074,3.642,0.217,5.462,0.217c31.392,0.01,62.782,0.021,94.174-0.01
	c11.122-0.012,22.244-0.139,33.366-0.213c0.657,0,1.315,0.002,1.973,0.004c26.728,0.072,53.454,0.184,80.182,0.203
	c15.27,0.012,30.539-0.129,45.81-0.199c2.602,0.176,5.204,0.352,8.188,0.555c0,17.186,0.098,33.988-0.173,50.786
	c-0.023,1.454-2.208,3.501-3.847,4.2c-12.095,5.158-24.313,10.025-36.477,15.023c-26.233,10.779-52.457,21.582-78.685,32.376
	c-2.692,0.954-5.384,1.907-8.075,2.86c0.101,0.265,0.2,0.528,0.3,0.793c6.59,0,13.179,0,19.769,0
	c0.648-0.002,1.298-0.006,1.947-0.008c16.428,0.105,32.854,0.281,49.282,0.291c12.94,0.01,25.881-0.184,38.821-0.287
	c1.997,0.014,3.995,0.027,5.992,0.039c0.304,0.135,0.607,0.271,0.91,0.406l-0.016-0.023c-0.334,5.657-0.668,11.313-1.001,16.969
	c-0.178,1.348-0.354,2.694-0.532,4.042c-0.166,2.663-0.332,5.329-0.498,7.992c-0.048,0.816-0.095,1.632-0.142,2.448
	c-0.418,3.86-0.835,7.723-1.253,11.583c-0.059,0.652-0.117,1.305-0.176,1.957c-0.178,2.679-0.355,5.355-0.533,8.033
	c-0.119,0.665-0.237,1.33-0.355,1.995c-0.347,4.001-0.693,8.004-1.04,12.005c-0.061,0.648-0.121,1.298-0.182,1.946
	c-0.379,4.666-0.757,9.333-1.135,13.999c-2.433,27.305-4.929,54.604-7.214,81.92c-0.273,3.267-1.134,5.028-4.464,5.997
	c-10.832,3.149-21.575,6.605-32.343,9.976c-24.696,7.73-49.388,15.48-74.08,23.223c-25.326-6.938-50.655-13.862-75.977-20.818
	c-12.344-3.391-24.699-6.741-36.97-10.381c-1.585-0.471-3.722-2.471-3.858-3.927c-2.477-26.354-4.688-52.733-6.938-79.108
	c-0.097-1.127-0.013-2.27-0.013-3.745c17.957,0,35.689,0,53.95,0c0.912,7.286,1.83,14.51,2.717,21.737
	c0.669,5.451,1.065,10.95,2.086,16.334c0.304,1.608,2.061,3.798,3.557,4.194c17.365,4.6,34.782,9.014,52.258,13.172
	c2.557,0.608,5.49-0.372,8.249-0.617c18.958-3.437,37.929-6.816,56.851-10.449c1.185-0.228,2.71-2.355,2.86-3.733
	c1.899-17.359,3.579-34.745,5.304-52.125c0.6-6.044,1.167-12.091,1.794-18.606c-2.361,0-4.166,0-5.972,0
	c-50.94-0.009-101.88-0.027-152.82-0.021C510.036,478.952,499.053,479.042,488.069,479.091z"/>
<path fill-rule="evenodd" clip-rule="evenodd" fill="#1D88C7" d="M643.898,422.534c-0.649,0.002-1.299,0.006-1.947,0.008
	c-3.073-0.521-6.177-0.912-9.202-1.634c-1.032-0.246-1.866-1.322-2.791-2.02c26.228-10.794,52.451-21.597,78.685-32.376
	c12.163-4.998,24.382-9.865,36.477-15.023c1.639-0.699,3.823-2.746,3.847-4.2c0.271-16.798,0.173-33.601,0.173-50.786
	c-2.983-0.203-5.586-0.379-8.188-0.555c-1.721-0.338-3.441-0.967-5.162-0.971c-38.555-0.055-77.109-0.055-115.663,0
	c-1.723,0.002-3.444,0.631-5.166,0.967c-0.657-0.002-1.315-0.004-1.973-0.004c-0.001-0.342-0.002-0.682-0.004-1.023
	c-0.003-15.496,0.086-30.994-0.078-46.49c-0.037-3.503,1.056-4.553,4.553-4.547c57.655,0.092,115.311,0.087,172.967,0.017
	c3.809-0.005,4.582,0.792,3.932,4.905c-1.366,8.643-1.642,17.456-2.415,26.193c-1.282,14.499-2.656,28.989-3.888,43.491
	c-0.799,9.404-1.288,18.834-2.141,28.232c-1.166,12.842-2.584,25.66-3.816,38.497c-0.489,5.11-0.704,10.247-1.158,15.36
	c-1.273,14.332-2.672,28.654-3.892,42.99c-0.814,9.569-1.271,19.17-2.135,28.733c-1.129,12.512-2.583,24.993-3.74,37.503
	c-0.87,9.397-1.422,18.822-2.239,28.226c-1.218,14.003-2.585,27.995-3.812,41.998c-0.795,9.07-1.695,18.142-2.102,27.233
	c-0.381,8.521-1.074,9.436-9.073,11.692c-17.695,4.991-35.29,10.335-52.971,15.379c-28.682,8.18-57.398,16.234-86.106,24.324
	c-0.282,0.079-0.636-0.094-1.411-0.227c-0.149-1.108-0.458-2.345-0.461-3.582c-0.034-14.33-0.052-28.661,0.021-42.991
	c0.008-1.604,0.601-3.206,0.923-4.81c24.692-7.742,49.384-15.492,74.08-23.223c10.768-3.37,21.511-6.826,32.343-9.976
	c3.33-0.969,4.19-2.73,4.464-5.997c2.285-27.315,4.781-54.615,7.214-81.92c3.775-4.391,1.656-9.26,1.135-13.999
	c0.061-0.648,0.121-1.298,0.182-1.946c0.347-4.001,0.693-8.004,1.04-12.005c0.118-0.665,0.236-1.33,0.354-1.995
	c0.179-2.678,0.356-5.354,0.534-8.033c0.059-0.652,0.117-1.305,0.176-1.957c0.418-3.86,0.835-7.723,1.253-11.583
	c0.047-0.816,0.094-1.632,0.142-2.448c0.166-2.663,0.332-5.329,0.498-7.992c0.178-1.348,0.354-2.694,0.532-4.042
	c0.333-5.655,0.667-11.312,1.001-16.969l0.016,0.023c-0.303-0.135-0.606-0.271-0.91-0.406c-1.997-0.012-3.995-0.025-5.992-0.039
	c-1.407-0.524-2.813-1.504-4.222-1.509c-26.548-0.091-53.096-0.091-79.644,0C646.722,421.034,645.312,422.011,643.898,422.534z"/>
<path fill-rule="evenodd" clip-rule="evenodd" fill="#1F88C6" d="M488.069,479.091c10.983-0.049,21.967-0.139,32.95-0.14
	c50.94-0.007,101.88,0.012,152.82,0.021c1.806,0,3.61,0,5.972,0c-0.627,6.516-1.194,12.563-1.794,18.606
	c-1.725,17.38-3.404,34.766-5.304,52.125c-0.15,1.378-1.676,3.506-2.86,3.733c-18.922,3.633-37.893,7.013-56.851,10.449
	c-0.009-25.788-0.018-51.578-0.028-77.367c-0.002-6.602-0.004-6.604-6.84-6.604c-37.437-0.001-74.872,0.012-112.309-0.036
	C491.907,479.876,489.988,479.364,488.069,479.091z"/>
<path fill-rule="evenodd" clip-rule="evenodd" fill="#1774C8" d="M393.036,223.92c1.787-0.656,3.573-1.884,5.362-1.888
	c47.614-0.105,95.229-0.088,142.844-0.086c95.562,0.004,191.123,0.012,286.686,0.018c-1.295,0.658-2.589,1.889-3.885,1.892
	c-52.138,0.097-104.276,0.083-156.414,0.083c-28.4,0.001-56.801,0.071-85.2-0.046c-8.121-0.033-16.243-0.938-24.36-0.884
	c-24.779,0.164-49.556,0.677-74.335,0.873c-5.951,0.048-11.911-0.926-17.863-0.879C441.591,223.193,417.314,223.596,393.036,223.92z
	"/>
<path fill-rule="evenodd" clip-rule="evenodd" fill="#206FA9" d="M612.983,314.917c0.002,0.342,0.003,0.682,0.004,1.023
	c-11.122,0.074-22.244,0.201-33.366,0.213c-31.392,0.031-62.782,0.02-94.174,0.01c-1.82,0-3.641-0.143-5.462-0.217
	c1.891-0.338,3.781-0.965,5.672-0.969C528.1,314.917,570.542,314.923,612.983,314.917z"/>
<path fill-rule="evenodd" clip-rule="evenodd" fill="#206FA9" d="M471.98,315.948l-0.463,0.162l-0.485-0.078
	C471.349,316.005,471.664,315.976,471.98,315.948z"/>
<path fill-rule="evenodd" clip-rule="evenodd" fill="#4396C4" d="M643.898,422.534c1.413-0.523,2.823-1.5,4.238-1.505
	c26.548-0.091,53.096-0.091,79.644,0c1.409,0.005,2.814,0.984,4.222,1.509c-12.94,0.104-25.881,0.297-38.821,0.287
	C676.753,422.815,660.326,422.64,643.898,422.534z"/>
<path fill-rule="evenodd" clip-rule="evenodd" fill="#2382B7" d="M614.96,315.944c1.722-0.336,3.443-0.965,5.166-0.967
	c38.554-0.055,77.108-0.055,115.663,0c1.721,0.004,3.441,0.633,5.162,0.971c-15.271,0.07-30.54,0.211-45.81,0.199
	C668.414,316.128,641.688,316.017,614.96,315.944z"/>
<path fill-rule="evenodd" clip-rule="evenodd" fill="#4396C4" d="M629.958,418.889c0.925,0.697,1.759,1.773,2.791,2.02
	c3.025,0.722,6.129,1.113,9.202,1.634c-6.59,0-13.179,0-19.769,0c-0.1-0.265-0.199-0.528-0.3-0.793
	C624.574,420.796,627.266,419.843,629.958,418.889z"/>
<path fill-rule="evenodd" clip-rule="evenodd" fill="#4396C4" d="M738.889,422.96c-0.334,5.657-0.668,11.313-1.001,16.969
	C738.221,434.272,738.555,428.617,738.889,422.96z"/>
<path fill-rule="evenodd" clip-rule="evenodd" fill="#4396C4" d="M733.177,491.931c0.521,4.739,2.641,9.608-1.135,13.999
	C732.42,501.264,732.798,496.597,733.177,491.931z"/>
<path fill-rule="evenodd" clip-rule="evenodd" fill="#4396C4" d="M734.398,477.979c-0.347,4.001-0.693,8.004-1.04,12.005
	C733.705,485.983,734.052,481.98,734.398,477.979z"/>
<path fill-rule="evenodd" clip-rule="evenodd" fill="#4396C4" d="M736.716,454.411c-0.418,3.86-0.835,7.723-1.253,11.583
	C735.881,462.134,736.298,458.271,736.716,454.411z"/>
<path fill-rule="evenodd" clip-rule="evenodd" fill="#4396C4" d="M737.355,443.971c-0.166,2.663-0.332,5.329-0.498,7.992
	C737.023,449.3,737.189,446.634,737.355,443.971z"/>
<path fill-rule="evenodd" clip-rule="evenodd" fill="#4396C4" d="M735.287,467.951c-0.178,2.679-0.355,5.355-0.534,8.033
	C734.932,473.307,735.109,470.63,735.287,467.951z"/>
<path fill-rule="evenodd" clip-rule="evenodd" fill="#4396C4" d="M737.994,422.577c0.304,0.135,0.607,0.271,0.91,0.406
	C738.602,422.849,738.298,422.712,737.994,422.577z"/>
</svg>
