<?xml version="1.0" encoding="utf-8"?>
<!-- Generator: Adobe Illustrator 16.0.0, SVG Export Plug-In . SVG Version: 6.00 Build 0)  -->
<!DOCTYPE svg PUBLIC "-//W3C//DTD SVG 1.1//EN" "http://www.w3.org/Graphics/SVG/1.1/DTD/svg11.dtd">
<svg version="1.1" id="Layer_1" xmlns="http://www.w3.org/2000/svg" xmlns:xlink="http://www.w3.org/1999/xlink" x="0px" y="0px"
	 width="390px" height="390px" viewBox="5 5 390 390" enable-background="new 5 5 390 390" xml:space="preserve">
<path fill="#FEC928" d="M395,395c-130,0-260,0-390,0C5,264.999,5,135,5,5c130,0,259.999,0,390,0C395,134.999,395,264.999,395,395z
	 M348.651,209.876c-5.066-5.644-9.122-11.444-14.384-15.779c-13.843-11.401-30.262-13.309-47.354-10.598
	c-17.494,2.774-31.217,11.421-37.635,28.49c-6.476,17.227-4.341,33.889,7.029,48.711c7.956,10.369,19.421,15.929,31,21.203
	c8.831,4.025,17.735,7.939,26.31,12.467c6.328,3.338,9.955,9.027,9.088,16.423c-0.895,7.631-6.021,11.843-13.056,14.098
	c-14.705,4.713-30.733-0.326-40.474-12.817c-1.756-2.248-3.418-4.564-5.164-6.905c-9.716,5.659-19.041,11.092-28.565,16.641
	c4.116,8.196,9.186,14.876,15.879,20.167c20.819,16.454,44.54,19.511,69.464,13.269c28.308-7.09,41.724-29.587,36.291-58.399
	c-2.654-14.066-10.688-24.413-22.602-31.341c-10.879-6.326-22.603-11.192-33.879-16.854c-4.758-2.39-9.676-4.696-13.883-7.887
	c-5.191-3.938-6.812-9.616-5.097-16.103c1.703-6.438,6.218-9.909,12.38-10.851c9.18-1.402,17.004,1.384,22.65,9.133
	c1.302,1.785,2.55,3.608,3.966,5.622C329.859,222.406,338.719,216.498,348.651,209.876z M111.035,325.547
	c3.701,7.939,8.493,14.551,14.987,19.881c12.202,10.01,26.471,12.903,41.873,12.557c28.927-0.651,48.579-20.199,48.659-49.052
	c0.108-39.804,0.063-79.61,0.069-119.414c0.001-1.569-0.161-3.137-0.252-4.778c-11.817,0-23.256,0-35.157,0c0,2.234,0,4.155,0,6.076
	c0,36.229,0.022,72.46-0.031,108.691c-0.006,4.051-0.176,8.137-0.725,12.142c-0.862,6.277-3.464,11.434-10.1,13.577
	c-9.371,3.025-18.386,0.345-24.318-7.533c-2.214-2.941-4.125-6.111-6.33-9.411C130.09,314.075,120.689,319.735,111.035,325.547z"/>
<path fill="#FEFEFD" d="M347.296,210.668c-9.778,6.52-18.502,12.337-27.602,18.402c-1.396-1.982-2.623-3.777-3.904-5.535
	c-5.56-7.629-13.263-10.372-22.301-8.991c-6.066,0.927-10.513,4.345-12.188,10.683c-1.688,6.387-0.095,11.977,5.018,15.854
	c4.142,3.141,8.983,5.413,13.668,7.766c11.103,5.573,22.645,10.363,33.354,16.592c11.729,6.82,19.64,17.01,22.252,30.857
	c5.351,28.366-7.858,50.518-35.729,57.495c-24.539,6.146-47.894,3.138-68.391-13.063c-6.59-5.209-11.581-11.785-15.633-19.854
	c9.377-5.463,18.558-10.812,28.123-16.384c1.72,2.306,3.356,4.586,5.084,6.799c9.59,12.298,25.37,17.26,39.848,12.619
	c6.927-2.221,11.975-6.367,12.854-13.879c0.854-7.282-2.718-12.883-8.947-16.17c-8.442-4.457-17.208-8.312-25.902-12.273
	c-11.4-5.193-22.688-10.666-30.521-20.876c-11.194-14.592-13.296-30.997-6.92-47.957c6.317-16.806,19.829-25.319,37.053-28.05
	c16.828-2.669,32.993-0.791,46.621,10.434C338.315,199.401,342.309,205.111,347.296,210.668z"/>
<path fill="#FEFEFD" d="M113.356,324.551c9.503-5.722,18.76-11.295,28.23-16.996c2.171,3.247,4.052,6.368,6.231,9.264
	c5.841,7.757,14.716,10.396,23.941,7.418c6.534-2.11,9.097-7.188,9.944-13.367c0.541-3.943,0.708-7.967,0.714-11.954
	c0.052-35.67,0.029-71.341,0.029-107.01c0-1.891,0-3.782,0-5.982c11.719,0,22.979,0,34.613,0c0.09,1.615,0.25,3.159,0.249,4.704
	c-0.006,39.189,0.038,78.379-0.07,117.568c-0.077,28.404-19.425,47.652-47.904,48.293c-15.164,0.34-29.212-2.508-41.226-12.364
	C121.718,338.876,117,332.367,113.356,324.551z"/>
</svg>
