<?xml version="1.0" encoding="utf-8"?>
<!-- Generator: Adobe Illustrator 16.0.0, SVG Export Plug-In . SVG Version: 6.00 Build 0)  -->
<!DOCTYPE svg PUBLIC "-//W3C//DTD SVG 1.1//EN" "http://www.w3.org/Graphics/SVG/1.1/DTD/svg11.dtd">
<svg version="1.1" id="Layer_1" xmlns="http://www.w3.org/2000/svg" xmlns:xlink="http://www.w3.org/1999/xlink" x="0px" y="0px"
	 width="300px" height="300px" viewBox="259.006 14.285 300 300" enable-background="new 259.006 14.285 300 300"
	 xml:space="preserve">
<path fill="#FE2D20" d="M259.006,314.285c0-99.998,0-200,0-300c100,0,200,0,300,0c0,99.909,0,199.818,0,300
	C458.59,314.285,358.797,314.285,259.006,314.285z M391.875,171.424c0-2.449,0-4.236,0-6.021c0-26.994-0.018-53.986,0.02-80.979
	c0.004-2.919-0.082-5.417-3.186-7.164c-13.117-7.383-26.041-15.109-39.226-22.368c-1.869-1.028-5.261-1.053-7.126-0.036
	c-12.625,6.894-24.975,14.29-37.539,21.297c-3.604,2.011-4.95,4.416-4.934,8.643c0.166,44.32,0.268,88.645-0.063,132.961
	c-0.056,7.365,1.565,11.813,8.519,15.625c25.359,13.906,50.293,28.602,75.313,43.125c3.254,1.887,5.684,1.879,9.064-0.098
	c26.537-15.508,53.207-30.785,79.906-46.018c2.51-1.432,3.477-3.025,3.449-5.877c-0.121-12.996,0.15-25.996-0.168-38.982
	c-0.104-4.314,1.521-6.465,5.105-8.439c11.43-6.309,22.754-12.824,33.896-19.623c1.85-1.127,3.621-4.055,3.668-6.188
	c0.318-14.656,0.297-29.326,0.021-43.981c-0.037-2.052-1.539-4.931-3.246-5.96c-13.021-7.848-26.217-15.412-39.496-22.819
	c-1.563-0.873-4.385-1.061-5.887-0.229c-13.158,7.278-26.145,14.878-39.201,22.336c-2.682,1.531-3.875,3.488-3.826,6.78
	c0.197,13.327,0.121,26.659,0.029,39.987c-0.01,1.528-0.246,3.875-1.207,4.451C414.74,158.422,403.559,164.73,391.875,171.424z"/>
<path fill="#FEF7F6" d="M392.857,172.404c11.686-6.693,22.863-13,33.883-19.578c0.963-0.574,1.199-2.921,1.209-4.451
	c0.094-13.328,0.168-26.658-0.027-39.982c-0.053-3.292,1.145-5.248,3.824-6.779c13.061-7.457,26.037-15.056,39.195-22.333
	c1.5-0.831,4.322-0.645,5.887,0.229c13.275,7.407,26.475,14.971,39.492,22.817c1.707,1.029,3.207,3.908,3.244,5.959
	c0.275,14.655,0.299,29.323-0.02,43.976c-0.047,2.133-1.82,5.06-3.668,6.187c-11.145,6.799-22.467,13.313-33.896,19.621
	c-3.582,1.977-5.207,4.125-5.102,8.438c0.316,12.986,0.047,25.986,0.168,38.98c0.023,2.85-0.941,4.441-3.453,5.875
	c-26.693,15.229-53.361,30.504-79.896,46.01c-3.381,1.979-5.809,1.98-9.063,0.098c-25.021-14.521-49.946-29.213-75.305-43.119
	c-6.951-3.813-8.57-8.258-8.518-15.621c0.33-44.313,0.229-88.63,0.063-132.945c-0.018-4.226,1.33-6.631,4.935-8.641
	c12.563-7.008,24.909-14.402,37.532-21.295c1.865-1.017,5.258-0.992,7.125,0.036c13.182,7.257,26.104,14.982,39.219,22.365
	c3.105,1.747,3.189,4.244,3.189,7.163c-0.037,26.99-0.021,53.979-0.021,80.969C392.857,168.168,392.857,169.955,392.857,172.404z
	 M308.018,88.361c0,2.716,0,4.333,0,5.949c0,41.975,0.044,83.95-0.079,125.927c-0.011,3.598,1.11,5.518,4.289,7.268
	c10.721,5.896,21.208,12.215,31.817,18.314c13.558,7.791,27.146,15.521,41.264,23.592c0-13.104,0.113-25.563-0.154-38.014
	c-0.027-1.443-1.883-3.328-3.363-4.189c-11-6.4-22.063-12.705-33.234-18.797c-3.873-2.111-5.658-4.543-5.616-9.295
	c0.256-28.814,0.168-57.632,0.03-86.449c-0.01-1.8-0.911-4.435-2.264-5.258C330.278,101.061,319.639,95.069,308.018,88.361z
	 M469.963,185.15c-5.082,2.881-9.641,5.449-14.184,8.041c-19.689,11.234-39.402,22.432-59.023,33.787
	c-1.621,0.938-3.691,2.932-3.73,4.479c-0.303,12.424-0.17,24.857-0.17,37.521c1.01-0.305,1.668-0.379,2.195-0.682
	c24.193-13.93,48.395-27.854,72.52-41.9c1.139-0.662,2.271-2.457,2.289-3.736C470.031,210.389,469.963,198.117,469.963,185.15z
	 M466.311,178.791c-10.744-6.227-21.063-12.121-31.277-18.186c-2.568-1.525-4.6-1.543-7.234,0.002
	c-16.521,9.686-33.146,19.197-49.74,28.76c-7.783,4.484-15.573,8.957-23.917,13.754c11.452,6.529,22.087,12.752,32.931,18.584
	c1.404,0.756,4.146-0.023,5.83-0.918c6.273-3.332,12.357-7.018,18.521-10.551C429.479,199.885,447.541,189.543,466.311,178.791z
	 M385.27,88.53c-10.752,6.235-20.457,12.093-30.409,17.497c-3.233,1.756-4.419,3.65-4.396,7.308
	c0.149,25.97,0.076,51.943,0.092,77.916c0.002,1.563,0.168,3.131,0.298,5.385c11.313-6.52,22.056-12.604,32.626-18.977
	c1.119-0.674,1.703-3.031,1.717-4.617c0.127-14.813,0.076-29.632,0.074-44.45C385.27,115.619,385.27,102.646,385.27,88.53z
	 M311.73,82.147c8.302,4.762,16.189,8.351,22.975,13.414c8.529,6.368,15.717,6.673,24.322,0.023
	c6.771-5.23,14.813-8.817,22.73-13.389c-11.229-6.549-21.731-12.75-32.348-18.759c-1.177-0.666-3.311-0.836-4.435-0.214
	C334.161,69.213,323.467,75.423,311.73,82.147z M438.611,106.085c8.465,4.878,16.77,9.023,24.354,14.219
	c7.244,4.963,13.273,6.111,20.938,0.349c7.434-5.587,16.086-9.544,24.717-14.513c-11.316-6.573-21.934-12.833-32.688-18.846
	c-1.205-0.675-3.5-0.494-4.775,0.214C460.48,93.439,449.928,99.586,438.611,106.085z M469.961,172.496
	c0-13.125,0.057-25.417-0.094-37.705c-0.016-1.161-1.043-2.778-2.068-3.387c-10.732-6.352-21.564-12.54-32.797-19.024
	c0,12.775-0.082,24.903,0.105,37.028c0.021,1.447,1.168,3.473,2.402,4.212C447.979,159.891,458.588,165.926,469.961,172.496z
	 M477.23,172.537c11.313-6.502,22.201-12.653,32.924-19.084c1.16-0.695,1.879-3.002,1.906-4.581
	c0.172-9.659,0.086-19.324,0.086-28.987c0-2.197,0-4.395,0-7.407c-12.445,7.177-23.836,13.746-34.916,20.135
	C477.23,146.026,477.23,158.938,477.23,172.537z"/>
<path fill="#FE2D20" d="M308.018,88.361c11.621,6.708,22.261,12.701,32.688,19.045c1.354,0.823,2.256,3.458,2.266,5.258
	c0.138,28.816,0.226,57.633-0.03,86.448c-0.042,4.754,1.743,7.184,5.616,9.295c11.174,6.094,22.236,12.396,33.234,18.797
	c1.48,0.863,3.336,2.748,3.363,4.193c0.27,12.449,0.154,24.908,0.154,38.012c-14.117-8.068-27.706-15.803-41.264-23.594
	c-10.61-6.098-21.1-12.416-31.817-18.313c-3.179-1.748-4.3-3.67-4.289-7.27c0.124-41.975,0.079-83.95,0.079-125.925
	C308.018,92.693,308.018,91.077,308.018,88.361z"/>
<path fill="#FE2D20" d="M469.963,185.15c0,12.967,0.066,25.238-0.105,37.51c-0.018,1.279-1.15,3.074-2.289,3.736
	c-24.125,14.049-48.32,27.973-72.518,41.9c-0.527,0.303-1.188,0.377-2.195,0.682c0-12.664-0.135-25.098,0.17-37.521
	c0.037-1.547,2.107-3.539,3.729-4.479c19.623-11.355,39.334-22.553,59.023-33.787C460.324,190.6,464.881,188.031,469.963,185.15z"/>
<path fill="#FE2E21" d="M466.311,178.791c-18.77,10.752-36.832,21.094-54.891,31.445c-6.164,3.533-12.248,7.219-18.521,10.551
	c-1.684,0.895-4.426,1.674-5.83,0.918c-10.844-5.832-21.479-12.055-32.932-18.584c8.346-4.797,16.135-9.27,23.918-13.754
	c16.594-9.563,33.219-19.074,49.74-28.76c2.637-1.545,4.666-1.527,7.234-0.002C445.248,166.67,455.566,172.564,466.311,178.791z"/>
<path fill="#FE2D20" d="M385.27,88.53c0,14.118,0,27.089,0,40.061c0,14.817,0.053,29.634-0.074,44.45
	c-0.014,1.586-0.598,3.943-1.717,4.617c-10.57,6.371-21.313,12.453-32.626,18.977c-0.13-2.254-0.296-3.818-0.298-5.385
	c-0.016-25.973,0.061-51.944-0.092-77.916c-0.021-3.658,1.162-5.551,4.396-7.308C364.813,100.623,374.518,94.765,385.27,88.53z"/>
<path fill="#FE2E21" d="M311.73,82.147c11.736-6.725,22.431-12.934,33.247-18.924c1.124-0.622,3.258-0.452,4.435,0.214
	c10.614,6.009,21.119,12.21,32.348,18.759c-7.918,4.572-15.959,8.158-22.73,13.389c-8.605,6.65-15.793,6.344-24.322-0.023
	C327.92,90.498,320.032,86.91,311.73,82.147z"/>
<path fill="#FE2E21" d="M438.611,106.085c11.316-6.5,21.869-12.646,32.541-18.577c1.275-0.708,3.57-0.889,4.775-0.214
	c10.754,6.013,21.369,12.271,32.688,18.846c-8.631,4.969-17.285,8.925-24.717,14.513c-7.662,5.762-13.689,4.615-20.938-0.349
	C455.379,115.109,447.076,110.965,438.611,106.085z"/>
<path fill="#FE2D20" d="M469.961,172.496c-11.373-6.57-21.982-12.604-32.449-18.875c-1.234-0.739-2.379-2.767-2.402-4.212
	c-0.188-12.125-0.105-24.253-0.105-37.028c11.232,6.484,22.063,12.672,32.797,19.024c1.025,0.609,2.057,2.227,2.068,3.387
	C470.018,147.08,469.961,159.369,469.961,172.496z"/>
<path fill="#FE2D21" d="M477.23,172.537c0-13.6,0-26.511,0-39.923c11.08-6.39,22.471-12.958,34.916-20.135c0,3.012,0,5.21,0,7.407
	c0,9.663,0.086,19.328-0.086,28.987c-0.027,1.577-0.746,3.884-1.906,4.581C499.432,159.884,488.541,166.035,477.23,172.537z"/>
<rect x="209.006" y="-35.714" display="none" fill="#FE2D20" width="400" height="400"/>
</svg>
