<?xml version="1.0" encoding="utf-8"?>
<!-- Generator: Adobe Illustrator 16.0.0, SVG Export Plug-In . SVG Version: 6.00 Build 0)  -->
<!DOCTYPE svg PUBLIC "-//W3C//DTD SVG 1.1//EN" "http://www.w3.org/Graphics/SVG/1.1/DTD/svg11.dtd">
<svg version="1.1" id="Layer_1" xmlns="http://www.w3.org/2000/svg" xmlns:xlink="http://www.w3.org/1999/xlink" x="0px" y="0px"
	 width="300px" height="300px" viewBox="0 0 300 300" enable-background="new 0 0 300 300" xml:space="preserve">
<path fill="#FE2D20" d="M0,300C0,200.002,0,100,0,0c99.999,0,200,0,300,0c0,99.909,0,199.818,0,300C199.584,300,99.791,300,0,300z
	 M132.868,157.139c0-2.449,0-4.236,0-6.023c0-26.993-0.017-53.985,0.021-80.979c0.003-2.919-0.083-5.417-3.187-7.164
	c-13.116-7.383-26.04-15.109-39.225-22.368c-1.869-1.028-5.261-1.053-7.126-0.036c-12.625,6.894-24.975,14.29-37.539,21.297
	c-3.604,2.011-4.95,4.416-4.934,8.643c0.166,44.32,0.268,88.645-0.063,132.961c-0.055,7.366,1.565,11.813,8.518,15.625
	c25.36,13.907,50.293,28.602,75.314,43.125c3.254,1.887,5.683,1.879,9.063-0.097c26.537-15.509,53.208-30.786,79.906-46.017
	c2.511-1.432,3.478-3.026,3.45-5.877c-0.12-12.996,0.151-25.996-0.167-38.984c-0.105-4.314,1.521-6.465,5.104-8.439
	c11.431-6.309,22.755-12.824,33.898-19.623c1.849-1.127,3.621-4.055,3.668-6.188c0.317-14.655,0.296-29.325,0.021-43.981
	c-0.038-2.052-1.539-4.931-3.246-5.96c-13.022-7.848-26.218-15.412-39.497-22.819c-1.563-0.873-4.385-1.061-5.887-0.229
	c-13.158,7.278-26.143,14.878-39.2,22.336c-2.682,1.531-3.876,3.488-3.826,6.78c0.197,13.327,0.121,26.659,0.029,39.987
	c-0.01,1.528-0.247,3.875-1.208,4.451C155.735,144.137,144.553,150.445,132.868,157.139z"/>
<path fill="#FEF7F6" d="M133.851,158.118c11.686-6.692,22.864-13,33.884-19.578c0.962-0.574,1.198-2.921,1.208-4.45
	c0.093-13.328,0.169-26.658-0.028-39.982c-0.051-3.292,1.146-5.248,3.825-6.779c13.06-7.457,26.038-15.056,39.195-22.333
	c1.501-0.831,4.323-0.645,5.887,0.229c13.276,7.407,26.474,14.971,39.492,22.817c1.707,1.029,3.207,3.908,3.245,5.959
	c0.275,14.655,0.298,29.323-0.02,43.976c-0.047,2.133-1.82,5.06-3.668,6.187c-11.145,6.798-22.467,13.313-33.896,19.62
	c-3.583,1.978-5.208,4.125-5.102,8.438c0.316,12.986,0.046,25.986,0.167,38.98c0.025,2.85-0.941,4.443-3.452,5.876
	c-26.694,15.228-53.361,30.504-79.896,46.01c-3.382,1.978-5.81,1.981-9.063,0.097c-25.021-14.521-49.947-29.213-75.306-43.119
	c-6.95-3.813-8.57-8.258-8.517-15.621c0.33-44.313,0.229-88.63,0.063-132.945c-0.018-4.226,1.33-6.631,4.934-8.641
	c12.563-7.008,24.91-14.402,37.533-21.295c1.864-1.017,5.257-0.992,7.125,0.036c13.182,7.257,26.104,14.982,39.219,22.365
	c3.104,1.747,3.189,4.244,3.188,7.163c-0.036,26.99-0.021,53.979-0.021,80.97C133.851,153.883,133.851,155.669,133.851,158.118z
	 M49.011,74.075c0,2.716,0,4.333,0,5.949c0,41.975,0.044,83.951-0.079,125.926c-0.011,3.598,1.11,5.519,4.289,7.269
	c10.721,5.895,21.208,12.215,31.818,18.313c13.557,7.791,27.146,15.523,41.263,23.593c0-13.104,0.113-25.562-0.153-38.013
	c-0.029-1.444-1.883-3.33-3.364-4.191c-11-6.4-22.063-12.704-33.234-18.797c-3.874-2.111-5.659-4.542-5.617-9.295
	c0.256-28.813,0.168-57.632,0.03-86.448c-0.009-1.8-0.911-4.435-2.264-5.258C71.272,86.775,60.633,80.783,49.011,74.075z
	 M210.956,170.865c-5.082,2.881-9.64,5.449-14.183,8.041c-19.69,11.234-39.402,22.432-59.024,33.787
	c-1.62,0.938-3.69,2.932-3.729,4.478c-0.304,12.425-0.17,24.858-0.17,37.522c1.01-0.305,1.668-0.379,2.195-0.682
	c24.194-13.93,48.394-27.854,72.519-41.9c1.138-0.662,2.271-2.457,2.289-3.737C211.025,196.104,210.956,183.832,210.956,170.865z
	 M207.304,164.506c-10.744-6.227-21.062-12.121-31.277-18.186c-2.569-1.525-4.6-1.543-7.234,0.002
	c-16.522,9.686-33.147,19.197-49.741,28.76c-7.783,4.484-15.573,8.956-23.917,13.754c11.452,6.529,22.087,12.751,32.932,18.584
	c1.403,0.755,4.146-0.023,5.83-0.919c6.272-3.331,12.356-7.017,18.521-10.55C170.472,185.6,188.535,175.258,207.304,164.506z
	 M126.264,74.244c-10.752,6.235-20.458,12.093-30.41,17.497c-3.233,1.756-4.419,3.65-4.396,7.308
	c0.15,25.97,0.077,51.943,0.093,77.915c0.001,1.563,0.167,3.132,0.297,5.386c11.313-6.521,22.056-12.604,32.627-18.977
	c1.119-0.674,1.703-3.032,1.717-4.617c0.127-14.814,0.075-29.633,0.074-44.451C126.264,101.333,126.264,88.361,126.264,74.244z
	 M52.724,67.862c8.302,4.762,16.189,8.351,22.974,13.414c8.53,6.368,15.718,6.673,24.323,0.023
	c6.771-5.23,14.813-8.817,22.731-13.389c-11.229-6.549-21.732-12.75-32.348-18.759c-1.177-0.666-3.311-0.836-4.435-0.214
	C75.155,54.928,64.461,61.137,52.724,67.862z M179.605,91.8c8.465,4.878,16.77,9.023,24.354,14.219
	c7.244,4.963,13.273,6.111,20.938,0.349c7.432-5.587,16.086-9.544,24.717-14.513c-11.317-6.573-21.935-12.833-32.688-18.846
	c-1.206-0.675-3.5-0.494-4.775,0.214C201.475,79.154,190.922,85.301,179.605,91.8z M210.955,158.211
	c0-13.126,0.057-25.417-0.094-37.705c-0.015-1.161-1.043-2.778-2.069-3.387c-10.732-6.352-21.563-12.54-32.797-19.024
	c0,12.775-0.082,24.903,0.106,37.028c0.022,1.447,1.168,3.473,2.402,4.213C188.973,145.605,199.581,151.641,210.955,158.211z
	 M218.224,158.252c11.313-6.502,22.201-12.654,32.924-19.084c1.161-0.696,1.879-3.003,1.906-4.581
	c0.172-9.659,0.086-19.324,0.086-28.987c0-2.197,0-4.395,0-7.407c-12.444,7.177-23.836,13.746-34.916,20.135
	C218.224,131.74,218.224,144.652,218.224,158.252z"/>
<path fill="#FE2D20" d="M49.011,74.075c11.622,6.708,22.261,12.701,32.687,19.045c1.354,0.823,2.257,3.458,2.266,5.258
	c0.138,28.816,0.226,57.634-0.03,86.448c-0.042,4.753,1.743,7.183,5.617,9.295c11.173,6.093,22.235,12.396,33.234,18.797
	c1.481,0.863,3.335,2.747,3.364,4.193c0.268,12.449,0.153,24.908,0.153,38.011c-14.116-8.067-27.706-15.802-41.263-23.593
	c-10.611-6.098-21.1-12.416-31.818-18.313c-3.179-1.748-4.299-3.67-4.289-7.269c0.124-41.975,0.079-83.95,0.079-125.925
	C49.011,78.407,49.011,76.791,49.011,74.075z"/>
<path fill="#FE2D20" d="M210.956,170.865c0,12.967,0.067,25.238-0.104,37.509c-0.019,1.28-1.151,3.075-2.289,3.737
	c-24.125,14.049-48.321,27.973-72.519,41.9c-0.526,0.303-1.187,0.377-2.195,0.682c0-12.664-0.134-25.098,0.17-37.522
	c0.038-1.546,2.108-3.539,3.729-4.478c19.622-11.355,39.334-22.553,59.024-33.787C201.318,176.314,205.874,173.746,210.956,170.865z
	"/>
<path fill="#FE2E21" d="M207.304,164.506c-18.769,10.752-36.832,21.094-54.89,31.445c-6.165,3.533-12.249,7.219-18.521,10.55
	c-1.684,0.896-4.427,1.674-5.83,0.919c-10.845-5.833-21.479-12.055-32.932-18.584c8.345-4.798,16.135-9.27,23.917-13.754
	c16.594-9.563,33.219-19.074,49.741-28.76c2.637-1.545,4.665-1.527,7.234-0.002C186.242,152.385,196.56,158.279,207.304,164.506z"/>
<path fill="#FE2D20" d="M126.264,74.244c0,14.118,0,27.089,0,40.061c0,14.817,0.053,29.634-0.074,44.451
	c-0.014,1.585-0.598,3.943-1.717,4.617c-10.571,6.37-21.313,12.453-32.627,18.977c-0.129-2.254-0.296-3.82-0.297-5.386
	c-0.016-25.972,0.06-51.944-0.093-77.915c-0.021-3.658,1.162-5.551,4.396-7.308C105.806,86.337,115.511,80.479,126.264,74.244z"/>
<path fill="#FE2E21" d="M52.724,67.862c11.737-6.725,22.431-12.934,33.247-18.924c1.124-0.622,3.258-0.452,4.435,0.214
	c10.614,6.009,21.119,12.21,32.348,18.759c-7.919,4.572-15.96,8.158-22.731,13.389c-8.605,6.65-15.793,6.344-24.322-0.023
	C68.913,76.212,61.026,72.624,52.724,67.862z"/>
<path fill="#FE2E21" d="M179.605,91.8c11.316-6.5,21.869-12.646,32.542-18.577c1.275-0.708,3.569-0.889,4.775-0.214
	c10.754,6.013,21.369,12.271,32.688,18.846c-8.631,4.969-17.287,8.925-24.717,14.513c-7.662,5.762-13.691,4.615-20.938-0.349
	C196.373,100.823,188.07,96.679,179.605,91.8z"/>
<path fill="#FE2D20" d="M210.955,158.211c-11.374-6.57-21.982-12.605-32.449-18.875c-1.234-0.74-2.38-2.767-2.402-4.213
	c-0.188-12.125-0.106-24.253-0.106-37.028c11.233,6.484,22.063,12.672,32.797,19.024c1.026,0.609,2.057,2.227,2.069,3.387
	C211.012,132.794,210.955,145.084,210.955,158.211z"/>
<path fill="#FE2D21" d="M218.224,158.252c0-13.6,0-26.512,0-39.924c11.08-6.39,22.472-12.958,34.916-20.135c0,3.012,0,5.21,0,7.407
	c0,9.663,0.086,19.328-0.086,28.987c-0.027,1.577-0.745,3.884-1.906,4.581C240.425,145.598,229.535,151.75,218.224,158.252z"/>
</svg>
