<?xml version="1.0" encoding="utf-8"?>
<!-- Generator: Adobe Illustrator 16.0.0, SVG Export Plug-In . SVG Version: 6.00 Build 0)  -->
<!DOCTYPE svg PUBLIC "-//W3C//DTD SVG 1.1//EN" "http://www.w3.org/Graphics/SVG/1.1/DTD/svg11.dtd">
<svg version="1.1" id="Layer_1" xmlns="http://www.w3.org/2000/svg" xmlns:xlink="http://www.w3.org/1999/xlink" x="0px" y="0px"
	 width="450px" height="500px" viewBox="0 0 450 500" enable-background="new 0 0 450 500" xml:space="preserve">
<path fill-rule="evenodd" clip-rule="evenodd" fill="#5A67A9" d="M8.889,26.667c0-5.184,0-10.371,0-15.555
	c144.268,0,288.534,0,433.035,0c-4.064,46.139-8.015,90.931-11.957,135.723c-2.611,29.691-5.21,59.383-7.82,89.075
	c-1.582,17.997-3.111,36.001-4.777,53.989c-2.777,30.023-5.612,60.041-8.487,90.056c-2.102,21.951-4.71,43.865-6.221,65.855
	c-0.474,6.898-3.985,8.283-9.224,9.716c-46.841,12.814-93.698,25.57-140.434,38.761c-15.42,4.351-30.196,9.666-46.471,2.435
	c-8.904-3.956-18.969-5.269-28.474-7.91c-39.802-11.057-79.549-22.309-119.418-33.118c-7.267-1.969-11.016-5.699-11.275-13.068
	c-0.272-7.763-0.088-15.569-0.845-23.284c-3.513-35.812-7.598-71.568-10.876-107.402c-3.39-37.042-5.833-74.17-9.149-111.221
	c-4.764-53.186-9.91-106.339-15.001-159.495C11.025,36.333,9.775,31.517,8.889,26.667z M211.133,222.01
	c-0.653-0.643-1.308-1.283-1.962-1.925c-0.128-17.012,0.005-34.032-0.628-51.024c-0.112-3.008-3.189-8.234-5.292-8.44
	c-9.375-0.927-18.894-0.404-29.883-0.404c0.711,14.848,1.454,28.023,1.953,41.209c1.373,36.205,2.518,72.422,4.168,108.613
	c0.148,3.262,2.75,8.546,5.17,9.169c7.289,1.873,15.05,1.907,24.546,2.85c0-21.68,0-41.921,0-62.162
	c0.313-0.636,0.361-1.291,0.146-1.966c5.139-0.898,10.278-1.797,15.417-2.695c0.624,0.232,1.218,0.525,1.78,0.881
	c-0.615,4.764-1.755,9.527-1.766,14.293c-0.136,61.028-0.045,122.062-0.203,183.09c-0.021,8.114,2.932,10.591,10.793,8.373
	c41.281-11.646,82.683-22.878,123.827-34.985c4.096-1.204,8.901-6.962,9.66-11.261c2.431-13.776,3.176-27.852,4.461-41.823
	c4.228-45.968,8.646-91.92,12.455-137.921c1.108-13.379,0.422-26.903,0.559-40.362c0.185-2.189,0.368-4.379,0.552-6.571
	c0.595-5.219,1.188-10.44,1.781-15.66c0.176-2.181,0.351-4.362,0.526-6.545c1.338-2.893,3.595-5.703,3.874-8.696
	c3.116-33.477,5.876-66.988,8.858-100.479c0.678-7.602-2.444-11.07-10.07-10.875c-6.288,0.163-12.585-0.011-18.877-0.011
	c-45.16-0.002-90.32,0.031-135.48-0.02c-6.799-0.008-12.893,0.421-12.789,9.579c0.635,55.855,1.228,111.71,1.834,167.567
	c-0.63,0.314-1.277,0.584-1.946,0.803c-4.357-0.323-8.715-0.648-13.075-0.97C211.424,223.09,211.294,222.545,211.133,222.01z
	 M152.183,327.641c0.942-2.684,1.625-3.715,1.619-4.741c-0.3-51.057-0.719-102.112-0.946-153.167
	c-0.031-6.801-3.139-9.043-9.514-9.004c-24.419,0.154-48.841,0.031-73.261,0.169c-2.373,0.013-4.741,1.115-7.958,1.927
	c3.13,30.33,6.049,60.067,9.592,89.731c0.242,2.022,5.082,4.815,7.911,4.976c10.697,0.602,21.465,0.653,32.171,0.15
	c7.883-0.371,10.368,2.779,10.166,10.338c-0.385,14.421-0.322,28.865,0.112,43.284c0.093,3.14,1.797,8.131,4.008,8.969
	C134.518,323.464,143.463,325.304,152.183,327.641z"/>
<path fill-rule="evenodd" clip-rule="evenodd" fill="#7A83BA" d="M226.543,223.809c-0.606-55.857-1.199-111.712-1.834-167.567
	c-0.104-9.158,5.99-9.587,12.789-9.579c45.16,0.05,90.32,0.018,135.48,0.02c6.292,0,12.589,0.174,18.877,0.011
	c7.626-0.195,10.748,3.272,10.07,10.875c-2.982,33.492-5.742,67.003-8.858,100.479c-0.279,2.993-2.536,5.803-3.874,8.696
	c-1.636-1.604-3.257-4.588-4.91-4.605c-28.047-0.287-56.098-0.206-85.413-0.206c0,55.471,0,109.913,0,165.538
	c6.572-1.747,12.492-4.165,18.587-4.753c10.201-0.982,12.181-6.445,11.813-15.595c-0.646-16.113-0.182-32.27-0.182-49.42
	c14.117,0,26.644-0.413,39.126,0.146c8.223,0.368,11.53-1.732,12.087-10.808c1.057-17.233,3.92-34.354,6.033-51.521
	c-0.137,13.459,0.55,26.983-0.559,40.362c-3.81,46.001-8.228,91.953-12.455,137.921c-1.285,13.972-2.03,28.047-4.461,41.823
	c-0.759,4.299-5.564,10.057-9.66,11.261c-41.145,12.107-82.546,23.34-123.827,34.985c-7.861,2.218-10.814-0.259-10.793-8.373
	c0.158-61.028,0.067-122.062,0.203-183.09c0.011-4.766,1.151-9.529,1.766-14.293c4.236,0,8.474,0,14.01,0
	c0,22.652,0,43.917,0,65.845c10.083-1.148,18.768-2.138,28.439-3.238c2.041-53.047,4.053-105.328,6.074-157.852
	c-12.407,0-23.267,0-35.326,0c0,21.4,0,41.956,0,62.938C234.539,223.809,230.541,223.809,226.543,223.809z"/>
<path fill-rule="evenodd" clip-rule="evenodd" fill="#BBBDC1" d="M152.183,327.641c-8.72-2.337-17.665-4.177-26.099-7.367
	c-2.211-0.838-3.915-5.829-4.008-8.969c-0.434-14.419-0.497-28.863-0.112-43.284c0.202-7.559-2.283-10.709-10.166-10.338
	c-10.707,0.503-21.475,0.451-32.171-0.15c-2.83-0.16-7.669-2.953-7.911-4.976c-3.543-29.664-6.461-59.401-9.592-89.731
	c3.217-0.812,5.584-1.914,7.958-1.927c24.419-0.139,48.841-0.015,73.261-0.169c6.375-0.039,9.483,2.203,9.514,9.004
	c0.227,51.055,0.646,102.11,0.946,153.167C153.809,323.926,153.125,324.957,152.183,327.641z M123.848,209.165
	c0.043-16.068,0.012-16.621-14.226-15.818c-5.237,0.293-15.92-5.25-14.899,6.415c2.096,23.935-1.443,25.464,15.684,25.243
	C123.804,224.831,123.805,224.963,123.848,209.165z"/>
<path fill-rule="evenodd" clip-rule="evenodd" fill="#FBFBFC" d="M386.334,195.519c-2.113,17.168-4.977,34.288-6.033,51.521
	c-0.557,9.075-3.864,11.176-12.087,10.808c-12.482-0.559-25.009-0.146-39.126-0.146c0,17.15-0.465,33.307,0.182,49.42
	c0.368,9.149-1.611,14.612-11.813,15.595c-6.095,0.588-12.015,3.006-18.587,4.753c0-55.625,0-110.067,0-165.538
	c29.315,0,57.366-0.081,85.413,0.206c1.653,0.017,3.274,3.001,4.91,4.605c-0.176,2.183-0.351,4.364-0.526,6.545
	c-0.593,5.219-1.187,10.441-1.781,15.66C386.702,191.139,386.519,193.329,386.334,195.519z M327.514,224.972
	c7.488,0,14.403,0.495,21.177-0.273c2.315-0.26,5.751-3.439,6.128-5.709c1.357-8.153,1.626-16.487,2.349-25.263
	c-10.341,0-19.648,0-29.653,0C327.514,204.197,327.514,213.9,327.514,224.972z"/>
<path fill-rule="evenodd" clip-rule="evenodd" fill="#BCBEC1" d="M209.206,259.896c0,20.241,0,40.482,0,62.162
	c-9.497-0.942-17.258-0.977-24.546-2.85c-2.42-0.623-5.022-5.907-5.17-9.169c-1.65-36.191-2.795-72.409-4.168-108.613
	c-0.499-13.186-1.242-26.361-1.953-41.209c10.989,0,20.508-0.523,29.883,0.404c2.103,0.206,5.18,5.432,5.292,8.44
	c0.634,16.992,0.5,34.012,0.628,51.024c-0.175,0.658-0.18,1.315-0.018,1.975c0.791,0.527,1.581,1.055,2.372,1.58
	c4.356,0.324,8.714,0.649,13.072,0.972c0.057,10.208,0.113,20.415,0.17,30.623c-5.139,0.898-10.278,1.797-15.417,2.695
	C209.104,258.57,209.056,259.226,209.206,259.896z"/>
<path fill-rule="evenodd" clip-rule="evenodd" fill="#FBFBFC" d="M224.768,255.234c-0.058-10.208-0.114-20.415-0.17-30.623
	c0.668-0.219,1.316-0.488,1.946-0.803c3.998,0,7.996,0,13.202,0c0-20.983,0-41.539,0-62.938c12.06,0,22.919,0,35.326,0
	c-2.021,52.524-4.033,104.805-6.074,157.852c-9.672,1.101-18.356,2.09-28.439,3.238c0-21.928,0-43.192,0-65.845
	c-5.536,0-9.773,0-14.01,0C225.985,255.76,225.392,255.467,224.768,255.234z"/>
<path fill-rule="evenodd" clip-rule="evenodd" fill="#7A83BA" d="M386.886,188.947c0.595-5.219,1.188-10.44,1.781-15.66
	C388.074,178.507,387.48,183.729,386.886,188.947z"/>
<path fill-rule="evenodd" clip-rule="evenodd" fill="#515FA6" d="M209.153,222.06c-0.163-0.66-0.157-1.317,0.018-1.975
	c0.654,0.643,1.309,1.283,1.962,1.925C210.475,222.081,209.815,222.099,209.153,222.06z"/>
<path fill-rule="evenodd" clip-rule="evenodd" fill="#7A83BA" d="M209.153,222.06c0.662,0.039,1.322,0.021,1.979-0.05
	c0.162,0.536,0.292,1.081,0.391,1.632C210.734,223.114,209.944,222.587,209.153,222.06z"/>
<path fill-rule="evenodd" clip-rule="evenodd" fill="#515FA6" d="M209.206,259.896c-0.15-0.67-0.102-1.325,0.146-1.966
	C209.567,258.604,209.519,259.26,209.206,259.896z"/>
<path fill-rule="evenodd" clip-rule="evenodd" fill="#5C69A9" d="M123.848,209.165c-0.042,15.798-0.043,15.666-13.441,15.84
	c-17.127,0.221-13.587-1.309-15.684-25.243c-1.021-11.665,9.662-6.122,14.899-6.415
	C123.859,192.543,123.891,193.097,123.848,209.165z"/>
<path fill-rule="evenodd" clip-rule="evenodd" fill="#7B85BB" d="M327.514,224.972c0-11.072,0-20.774,0-31.246
	c10.005,0,19.313,0,29.653,0c-0.723,8.776-0.991,17.109-2.349,25.263c-0.377,2.27-3.813,5.449-6.128,5.709
	C341.917,225.467,335.002,224.972,327.514,224.972z"/>
</svg>
