<?xml version="1.0" encoding="utf-8"?>
<!-- Generator: Adobe Illustrator 16.0.0, SVG Export Plug-In . SVG Version: 6.00 Build 0)  -->
<!DOCTYPE svg PUBLIC "-//W3C//DTD SVG 1.1//EN" "http://www.w3.org/Graphics/SVG/1.1/DTD/svg11.dtd">
<svg version="1.1" id="Layer_1" xmlns="http://www.w3.org/2000/svg" xmlns:xlink="http://www.w3.org/1999/xlink" x="0px" y="0px"
	 width="220px" height="220px" viewBox="0 0 220 220" enable-background="new 0 0 220 220" xml:space="preserve">
<path fill="#00D7FE" d="M0,220C0,146.749,0,73.496,0,0c73.333,0,146.666,0,220,0c0,73.233,0,146.466,0,220
	C146.234,220,73.118,220,0,220z M158.794,82.379c0.103-9.359,0.966-18.968,0.103-28.419c-0.888-9.7-7.439-18.223-17.996-16.496
	c-4.629,0.757-9.379,2.389-13.422,4.744c-6.196,3.607-11.832,8.185-18.017,12.571c-0.341-0.307-1.024-0.963-1.753-1.57
	c-7.398-6.183-14.915-12.178-24.541-14.615c-12.045-3.051-20.343,1.479-22.042,13.541c-1.151,8.175-0.811,16.769,0.323,24.974
	c0.628,4.556-0.347,6.063-4.168,7.308c-9.285,3.023-17.764,7.326-24.496,14.776c-5.937,6.568-5.82,15.027,0.108,21.74
	c7.793,8.824,18.225,12.852,28.922,17.131c0,1.019,0.079,2.15-0.013,3.271c-0.611,7.555-2.443,15.234-1.625,22.626
	c1.375,12.438,6.443,19.99,19.076,18.519c7.783-0.906,15.11-4.201,21.265-9.465c3.168-2.711,6.36-5.388,9.56-8.098
	c8.825,7.492,17.101,15.186,29.112,17.326c7.535,1.344,14.154-1.248,18.059-9.857c4.587-10.119,3.05-20.547,1.284-30.902
	c-0.499-2.928-0.199-4.022,2.86-5.272c6.639-2.715,13.277-5.76,19.26-9.676c8.38-5.483,15.043-15.197,7.844-25.292
	c-2.13-2.98-4.787-5.992-7.896-7.785C173.313,89.257,165.609,85.786,158.794,82.379z"/>
<path fill="#FDFEFE" d="M160.661,82.867c6.938,3.468,14.782,7.002,22.198,11.278c3.166,1.826,5.871,4.89,8.039,7.925
	c7.33,10.277,0.547,20.164-7.984,25.748c-6.092,3.986-12.85,7.086-19.607,9.853c-3.115,1.272-3.42,2.39-2.912,5.369
	c1.797,10.542,3.361,21.155-1.308,31.459c-3.974,8.767-10.714,11.401-18.385,10.036c-12.228-2.182-20.652-10.012-29.638-17.639
	c-3.256,2.756-6.508,5.482-9.731,8.24c-6.266,5.359-13.725,8.715-21.649,9.637c-12.861,1.498-18.021-6.188-19.421-18.852
	c-0.833-7.523,1.033-15.345,1.655-23.033c0.092-1.142,0.013-2.295,0.013-3.332c-10.89-4.355-21.51-8.455-29.444-17.438
	c-6.036-6.834-6.154-15.444-0.11-22.134C39.231,92.4,47.863,88.02,57.315,84.942c3.89-1.268,4.883-2.802,4.243-7.44
	c-1.154-8.353-1.5-17.102-0.328-25.425c1.729-12.278,10.177-16.892,22.44-13.785c9.8,2.481,17.452,8.584,24.984,14.879
	c0.74,0.618,1.438,1.287,1.783,1.599c6.297-4.465,12.033-9.125,18.342-12.798c4.117-2.396,8.953-4.057,13.666-4.829
	c10.746-1.758,17.416,6.918,18.32,16.793C161.646,63.556,160.768,73.339,160.661,82.867z M110.375,137.98
	c2.993,0,6.006-0.217,8.975,0.053c4.258,0.388,7.1-0.958,9.178-4.934c3.469-6.634,7.576-12.929,11.095-19.533
	c0.735-1.383,0.678-3.81-0.042-5.235c-2.995-5.938-6.539-11.603-9.579-17.521c-2.405-4.685-5.744-6.513-11.094-5.938
	c-5.099,0.546-10.33,0.482-15.443,0.022c-5.838-0.526-9.724,1.181-12.007,6.858c-1.264,3.14-3.376,5.982-5.357,8.783
	c-4.744,6.708-6.028,13.263-0.245,20.158c1.75,2.086,2.954,4.701,4.084,7.22c3.415,7.608,8.5,12.104,17.452,10.097
	C108.338,137.797,109.377,137.98,110.375,137.98z M64.225,132.346c1.032-2.724,1.705-5.064,2.77-7.212
	c4.274-8.62,5.178-17.301,0.954-26.22c-0.831-1.755-1.085-3.903-2.254-5.342c-1.005-1.238-3.326-2.774-4.397-2.376
	c-9.039,3.343-18.19,6.691-24.523,14.59c-2.402,2.995-2.811,6.579-0.54,9.582C43.268,124.666,53.476,128.82,64.225,132.346z
	 M116.223,161.876c7.229,6.575,14.758,12.965,24.99,15.246c5.077,1.132,8.891,0.063,10.773-4.692
	c1.473-3.716,2.797-7.789,2.818-11.713c0.037-6.49-1.023-12.986-1.668-19.973c-6.027,1.059-11.313,1.893-16.552,2.945
	c-2.569,0.517-5.862,0.67-7.435,2.317C124.527,150.868,120.6,156.391,116.223,161.876z M105.725,161.854
	c-4.488-5.592-8.541-10.765-12.763-15.795c-0.817-0.975-2.226-1.783-3.48-2.006c-5.46-0.975-11.015-1.468-16.431-2.623
	c-2.604-0.554-3.679-0.152-4.087,2.461c-0.451,2.885-1.411,5.705-1.672,8.598c-0.669,7.408-1.465,15.1,3.371,21.402
	c1.598,2.084,5.509,3.82,8.074,3.489C89.789,175.953,98.036,169.158,105.725,161.854z M105.085,61.072
	c-6.612-8.037-14.478-13.324-23.008-15.573c-7.568-1.997-11.74,0.088-13.975,7.358c-2.714,8.83-0.748,17.581,1.13,26.235
	c0.184,0.851,2.576,1.584,4,1.705c1.554,0.132,3.191-0.445,4.763-0.83c6.063-1.486,12.85-1.074,17.297-6.774
	C98.421,69.185,101.68,65.278,105.085,61.072z M115.501,59.149c4.942,6.383,8.697,11.336,12.591,16.178
	c0.869,1.081,2.121,2.292,3.381,2.547c5.887,1.195,11.816,2.274,17.783,2.898c1.118,0.117,3.441-1.934,3.559-3.144
	c0.666-6.873,1.061-13.792,1.111-20.699c0.076-10.045-6.101-14.84-15.343-10.9C130.504,49.475,123.184,54.697,115.501,59.149z
	 M158.539,131.098c1.652-0.138,2.193-0.062,2.637-0.236c8.914-3.541,17.467-7.604,23.762-15.279
	c3.045-3.716,2.121-6.652-0.719-10.007c-6.217-7.347-14.613-10.862-23.244-14.168c-2.69-1.031-4.002-0.097-4.935,2.246
	c-2.166,5.441-4.377,10.865-6.485,16.328c-0.238,0.619-0.117,1.511,0.137,2.16c2.072,5.287,4.136,10.582,6.396,15.789
	C156.682,129.296,157.959,130.369,158.539,131.098z M145.143,119.432c-3.594,6.228-6.404,11.098-9.939,17.225
	c5.846-1.178,10.257-2.063,15.41-3.102C148.881,129.085,147.322,125.059,145.143,119.432z M111.104,157.063
	c3.406-4.319,6.15-7.803,9.365-11.881c-6.732,0-12.255,0-18.818,0C104.907,149.271,107.664,152.736,111.104,157.063z M76.85,102.279
	c3.418-6.155,6.118-11.019,9.417-16.96c-5.567,1.188-9.922,2.116-15.013,3.202C73.119,93.108,74.731,97.072,76.85,102.279z
	 M76.856,119.895c-2.061,5.121-3.695,9.182-5.582,13.867c5.265,0.957,9.634,1.752,14.997,2.729
	C82.924,130.59,80.165,125.727,76.856,119.895z M135.259,85.681c3.513,5.86,6.304,10.516,9.642,16.09
	c1.99-4.916,3.654-9.022,5.443-13.442C145.268,87.438,140.839,86.661,135.259,85.681z M119.063,76.987
	c0.321-0.388,0.646-0.775,0.965-1.163c-2.666-2.776-5.286-5.598-8.045-8.28c-0.467-0.454-1.953-0.688-2.236-0.371
	c-2.637,2.949-5.113,6.041-8.083,9.631c1.728,0.105,2.37,0.177,3.011,0.179C109.471,76.992,114.268,76.987,119.063,76.987z"/>
<path fill="#00D7FE" d="M110.375,137.98c-0.998,0-2.037-0.186-2.986,0.029c-8.951,2.008-14.037-2.488-17.452-10.099
	c-1.13-2.521-2.335-5.134-4.084-7.22c-5.783-6.896-4.499-13.45,0.245-20.158c1.98-2.801,4.093-5.643,5.357-8.783
	c2.284-5.677,6.169-7.385,12.007-6.858c5.113,0.459,10.347,0.524,15.442-0.022c5.351-0.574,8.688,1.253,11.095,5.938
	c3.04,5.918,6.584,11.583,9.579,17.521c0.72,1.427,0.777,3.853,0.042,5.233c-3.519,6.606-7.626,12.901-11.095,19.533
	c-2.078,3.977-4.918,5.321-9.176,4.936C116.381,137.764,113.368,137.98,110.375,137.98z M95.986,111.085
	c0.002,9.563,4.981,14.718,13.937,14.942c9.776,0.246,15.62-7.355,16.085-15.434c0.405-7.014-7.765-15.291-15.182-14.783
	C100.766,96.5,95.984,100.798,95.986,111.085z"/>
<path fill="#00D7FE" d="M64.225,132.346c-10.749-3.523-20.958-7.68-27.99-16.979c-2.271-3.004-1.863-6.586,0.54-9.582
	c6.333-7.898,15.485-11.247,24.523-14.59c1.072-0.397,3.392,1.139,4.397,2.376c1.169,1.439,1.423,3.587,2.254,5.342
	c4.224,8.919,3.32,17.599-0.954,26.22C65.93,127.279,65.257,129.622,64.225,132.346z"/>
<path fill="#00D7FE" d="M116.223,161.876c4.377-5.485,8.307-11.008,12.932-15.866c1.57-1.648,4.863-1.804,7.435-2.32
	c5.239-1.053,10.521-1.887,16.552-2.943c0.645,6.984,1.707,13.48,1.668,19.975c-0.021,3.922-1.348,7.995-2.818,11.713
	c-1.885,4.756-5.696,5.822-10.773,4.69C130.98,174.841,123.452,168.451,116.223,161.876z"/>
<path fill="#00D7FE" d="M105.725,161.854c-7.688,7.306-15.936,14.101-26.988,15.526c-2.565,0.331-6.476-1.405-8.074-3.489
	c-4.836-6.305-4.041-13.994-3.371-21.402c0.262-2.893,1.221-5.713,1.672-8.598c0.408-2.613,1.484-3.015,4.087-2.461
	c5.416,1.155,10.971,1.648,16.431,2.623c1.254,0.223,2.663,1.031,3.48,2.006C97.184,151.09,101.236,156.262,105.725,161.854z"/>
<path fill="#00D7FE" d="M105.085,61.072c-3.405,4.206-6.665,8.112-9.792,12.121c-4.447,5.7-11.235,5.288-17.297,6.774
	c-1.572,0.385-3.209,0.962-4.763,0.83c-1.424-0.121-3.816-0.854-4-1.705c-1.877-8.654-3.844-17.405-1.13-26.235
	c2.234-7.271,6.406-9.355,13.975-7.358C90.608,47.749,98.473,53.035,105.085,61.072z"/>
<path fill="#00D7FE" d="M115.501,59.149c7.683-4.453,15.003-9.674,23.082-13.119c9.242-3.94,15.419,0.855,15.343,10.9
	c-0.053,6.907-0.445,13.826-1.111,20.699c-0.115,1.21-2.438,3.261-3.559,3.144c-5.967-0.624-11.896-1.703-17.783-2.898
	c-1.26-0.256-2.512-1.466-3.381-2.547C124.197,70.486,120.443,65.532,115.501,59.149z"/>
<path fill="#00D7FE" d="M158.539,131.098c-0.58-0.729-1.857-1.802-2.453-3.172c-2.261-5.207-4.322-10.501-6.395-15.789
	c-0.254-0.646-0.377-1.541-0.14-2.158c2.109-5.463,4.32-10.887,6.486-16.328c0.935-2.342,2.241-3.277,4.937-2.246
	c8.631,3.306,17.025,6.822,23.242,14.167c2.842,3.355,3.766,6.291,0.719,10.008c-6.295,7.678-14.848,11.738-23.762,15.279
	C160.732,131.036,160.191,130.96,158.539,131.098z"/>
<path fill="#00D7FE" d="M145.143,119.432c2.18,5.627,3.738,9.653,5.471,14.123c-5.153,1.036-9.564,1.924-15.41,3.102
	C138.738,130.527,141.549,125.656,145.143,119.432z"/>
<path fill="#00D7FE" d="M111.104,157.063c-3.439-4.324-6.197-7.791-9.453-11.881c6.563,0,12.084,0,18.818,0
	C117.255,149.26,114.512,152.74,111.104,157.063z"/>
<path fill="#00D7FE" d="M76.85,102.279c-2.119-5.207-3.73-9.171-5.597-13.758c5.091-1.086,9.446-2.015,15.013-3.202
	C82.968,91.26,80.268,96.124,76.85,102.279z"/>
<path fill="#00D7FE" d="M76.856,119.895c3.309,5.832,6.068,10.695,9.416,16.596c-5.363-0.977-9.732-1.77-14.997-2.729
	C73.161,129.074,74.795,125.016,76.856,119.895z"/>
<path fill="#00D7FE" d="M135.259,85.681c5.58,0.979,10.009,1.757,15.085,2.647c-1.789,4.42-3.453,8.527-5.443,13.441
	C141.563,96.197,138.771,91.541,135.259,85.681z"/>
<path fill="#00D7FE" d="M119.063,76.987c-4.797,0-9.592,0.005-14.389-0.005c-0.642-0.002-1.283-0.073-3.011-0.179
	c2.969-3.59,5.446-6.682,8.083-9.631c0.283-0.317,1.771-0.083,2.236,0.371c2.759,2.682,5.379,5.504,8.047,8.28
	C119.707,76.212,119.385,76.6,119.063,76.987z"/>
<path fill="#FDFEFE" d="M95.986,111.085c-0.002-10.287,4.777-14.585,14.841-15.272c7.417-0.507,15.587,7.77,15.182,14.781
	c-0.466,8.078-6.31,15.682-16.085,15.436C100.968,125.803,95.988,120.646,95.986,111.085z"/>
</svg>
