<?xml version="1.0" encoding="utf-8"?>
<!-- Generator: Adobe Illustrator 16.0.0, SVG Export Plug-In . SVG Version: 6.00 Build 0)  -->
<!DOCTYPE svg PUBLIC "-//W3C//DTD SVG 1.1//EN" "http://www.w3.org/Graphics/SVG/1.1/DTD/svg11.dtd">
<svg version="1.1" id="Layer_1" xmlns="http://www.w3.org/2000/svg" xmlns:xlink="http://www.w3.org/1999/xlink" x="0px" y="0px"
	 width="400px" height="400px" viewBox="-90 -90 400 400" enable-background="new -90 -90 400 400" xml:space="preserve">
<rect x="-90" y="-90" fill="#00D7FE" width="400" height="400"/>
<path fill="#FDFEFE" d="M192.828,62.824c11.403,5.7,24.297,11.508,36.485,18.535c5.204,3.002,9.649,8.037,13.213,13.025
	c12.046,16.893,0.897,33.144-13.123,42.319c-10.013,6.551-21.119,11.646-32.227,16.193c-5.121,2.091-5.62,3.927-4.785,8.824
	c2.951,17.326,5.523,34.769-2.149,51.705c-6.53,14.405-17.608,18.737-30.218,16.491c-20.096-3.585-33.941-16.453-48.709-28.988
	c-5.353,4.529-10.698,9.01-15.995,13.542c-10.299,8.808-22.557,14.324-35.58,15.841c-21.137,2.46-29.619-10.172-31.919-30.985
	c-1.369-12.364,1.697-25.22,2.719-37.855c0.151-1.878,0.022-3.774,0.022-5.476c-17.898-7.159-35.353-13.896-48.393-28.661
	c-9.92-11.232-10.114-25.384-0.181-36.379C-6.747,78.491,7.44,71.293,22.976,66.234c6.394-2.084,8.025-4.604,6.973-12.228
	c-1.896-13.728-2.465-28.107-0.539-41.787c2.842-20.18,16.727-27.763,36.881-22.656c16.107,4.077,28.684,14.108,41.062,24.454
	c1.217,1.016,2.364,2.115,2.931,2.628c10.35-7.338,19.778-14.998,30.145-21.034c6.768-3.938,14.716-6.668,22.463-7.937
	c17.66-2.891,28.623,11.369,30.108,27.6C194.448,31.086,193.004,47.164,192.828,62.824z M110.183,153.404
	c4.92,0,9.87-0.354,14.75,0.088c6.998,0.636,11.67-1.575,15.083-8.109c5.703-10.904,12.453-21.251,18.236-32.103
	c1.206-2.273,1.114-6.263-0.069-8.605c-4.923-9.759-10.747-19.07-15.743-28.796c-3.953-7.7-9.44-10.705-18.233-9.76
	c-8.38,0.897-16.979,0.792-25.382,0.036c-9.595-0.863-15.981,1.942-19.732,11.271c-2.078,5.162-5.55,9.832-8.806,14.436
	c-7.796,11.026-9.907,21.798-0.402,33.129c2.876,3.429,4.855,7.729,6.712,11.869c5.613,12.502,13.97,19.894,28.683,16.595
	C106.834,153.104,108.542,153.404,110.183,153.404z M34.333,144.144c1.696-4.475,2.801-8.322,4.552-11.852
	c7.025-14.169,8.51-28.435,1.569-43.093c-1.366-2.884-1.785-6.416-3.706-8.781c-1.651-2.035-5.466-4.56-7.227-3.905
	c-14.856,5.494-29.896,10.996-40.304,23.979c-3.948,4.922-4.621,10.813-0.888,15.749C-0.111,131.521,16.667,138.351,34.333,144.144z
	 M119.793,192.678c11.882,10.807,24.255,21.31,41.072,25.058c8.344,1.862,14.61,0.105,17.706-7.712
	c2.42-6.106,4.596-12.802,4.633-19.25c0.059-10.666-1.683-21.343-2.742-32.824c-9.905,1.738-18.596,3.107-27.204,4.838
	c-4.22,0.849-9.633,1.103-12.222,3.808C133.441,174.587,126.986,183.663,119.793,192.678z M102.54,192.64
	c-7.376-9.188-14.037-17.69-20.977-25.958c-1.342-1.601-3.659-2.932-5.72-3.298c-8.973-1.602-18.104-2.411-27.005-4.308
	c-4.281-0.913-6.046-0.254-6.717,4.042c-0.741,4.743-2.319,9.378-2.747,14.133c-1.101,12.173-2.408,24.816,5.539,35.175
	c2.627,3.425,9.054,6.278,13.271,5.734C76.348,215.814,89.902,204.647,102.54,192.64z M101.487,27.004
	C90.621,13.794,77.692,5.104,63.674,1.408c-12.439-3.282-19.296,0.145-22.97,12.093c-4.461,14.513-1.229,28.896,1.857,43.119
	c0.303,1.398,4.234,2.604,6.575,2.802c2.554,0.218,5.245-0.729,7.828-1.364c9.965-2.441,21.12-1.764,28.428-11.133
	C90.534,40.338,95.891,33.916,101.487,27.004z M118.607,23.842c8.121,10.492,14.293,18.632,20.692,26.59
	c1.428,1.776,3.486,3.766,5.558,4.185c9.673,1.965,19.42,3.737,29.227,4.764c1.837,0.192,5.655-3.179,5.849-5.168
	c1.094-11.295,1.745-22.667,1.828-34.019c0.122-16.51-10.026-24.391-25.218-17.916C143.267,7.943,131.233,16.526,118.607,23.842z
	 M189.341,142.095c2.715-0.228,3.606-0.103,4.334-0.389c14.65-5.818,28.709-12.498,39.054-25.111
	c5.004-6.107,3.485-10.934-1.181-16.447c-10.218-12.075-24.021-17.853-38.203-23.285c-4.421-1.696-6.578-0.16-8.11,3.691
	c-3.56,8.942-7.194,17.856-10.659,26.835c-0.392,1.018-0.192,2.484,0.226,3.551c3.406,8.689,6.798,17.392,10.514,25.95
	C186.289,139.132,188.388,140.895,189.341,142.095z M167.323,122.918c-5.908,10.237-10.524,18.242-16.334,28.311
	c9.605-1.937,16.859-3.389,25.326-5.097C173.467,138.787,170.905,132.168,167.323,122.918z M111.378,184.768
	c5.599-7.098,10.108-12.824,15.392-19.527c-11.063,0-20.141,0-30.926,0C101.195,171.962,105.726,177.656,111.378,184.768z
	 M55.082,94.729c5.618-10.117,10.056-18.111,15.479-27.875c-9.15,1.953-16.309,3.479-24.676,5.263
	C48.95,79.655,51.599,86.17,55.082,94.729z M55.092,123.681c-3.387,8.417-6.073,15.093-9.174,22.792
	c8.652,1.572,15.833,2.878,24.648,4.484C65.065,141.26,60.53,133.265,55.092,123.681z M151.079,67.449
	c5.772,9.631,10.361,17.283,15.849,26.444c3.27-8.079,6.003-14.828,8.944-22.093C167.528,70.337,160.251,69.061,151.079,67.449z
	 M124.46,53.159c0.527-0.636,1.062-1.273,1.586-1.911c-4.382-4.563-8.688-9.2-13.224-13.609c-0.767-0.746-3.208-1.13-3.674-0.609
	c-4.334,4.847-8.402,9.929-13.284,15.829c2.84,0.173,3.896,0.291,4.949,0.294C108.697,53.169,116.578,53.159,124.46,53.159z"/>
<path fill="#00D7FE" d="M110.183,153.404c-1.641,0-3.349-0.305-4.909,0.048c-14.711,3.302-23.071-4.09-28.682-16.598
	c-1.858-4.145-3.838-8.439-6.713-11.867c-9.504-11.333-7.394-22.104,0.403-33.13c3.254-4.604,6.727-9.274,8.805-14.435
	c3.753-9.33,10.138-12.137,19.733-11.27c8.403,0.753,17.006,0.86,25.379-0.037c8.795-0.943,14.28,2.059,18.235,9.759
	c4.997,9.727,10.82,19.038,15.744,28.796c1.185,2.345,1.276,6.333,0.07,8.6c-5.783,10.856-12.537,21.204-18.236,32.104
	c-3.416,6.537-8.082,8.744-15.08,8.112C120.053,153.051,115.103,153.404,110.183,153.404z M86.533,109.201
	c0.003,15.719,8.186,24.187,22.906,24.56c16.068,0.402,25.67-12.091,26.437-25.368c0.666-11.527-12.763-25.131-24.953-24.296
	C94.389,85.229,86.53,92.294,86.533,109.201z"/>
<path fill="#00D7FE" d="M34.333,144.144c-17.667-5.789-34.446-12.622-46.004-27.903c-3.733-4.938-3.061-10.825,0.888-15.749
	c10.408-12.982,25.45-18.485,40.304-23.979c1.762-0.653,5.575,1.871,7.227,3.904c1.921,2.365,2.339,5.896,3.706,8.78
	c6.941,14.659,5.456,28.924-1.569,43.094C37.134,135.817,36.029,139.669,34.333,144.144z"/>
<path fill="#00D7FE" d="M119.793,192.678c7.193-9.015,13.651-18.091,21.253-26.076c2.581-2.709,7.994-2.966,12.22-3.814
	c8.612-1.73,17.295-3.1,27.207-4.835c1.06,11.479,2.805,22.155,2.74,32.829c-0.034,6.447-2.216,13.14-4.631,19.253
	c-3.098,7.816-9.362,9.566-17.708,7.704C144.048,213.987,131.675,203.484,119.793,192.678z"/>
<path fill="#00D7FE" d="M102.54,192.64c-12.636,12.011-26.191,23.178-44.356,25.521c-4.217,0.544-10.643-2.31-13.271-5.734
	c-7.947-10.362-6.642-23.002-5.539-35.175c0.43-4.755,2.006-9.39,2.747-14.133c0.671-4.296,2.439-4.955,6.717-4.042
	c8.901,1.896,18.032,2.706,27.005,4.308c2.061,0.366,4.377,1.697,5.72,3.298C88.503,174.95,95.161,183.451,102.54,192.64z"/>
<path fill="#00D7FE" d="M101.487,27.004c-5.596,6.912-10.954,13.332-16.093,19.921c-7.308,9.369-18.465,8.691-28.428,11.133
	c-2.584,0.634-5.273,1.582-7.829,1.364c-2.34-0.198-6.271-1.403-6.574-2.802c-3.085-14.223-6.317-28.606-1.857-43.119
	C44.377,1.551,51.234-1.874,63.675,1.408C77.694,5.105,90.621,13.794,101.487,27.004z"/>
<path fill="#00D7FE" d="M118.607,23.842c12.626-7.318,24.659-15.899,37.936-21.562c15.191-6.476,25.34,1.405,25.218,17.916
	c-0.088,11.351-0.734,22.723-1.828,34.019c-0.189,1.989-4.006,5.359-5.849,5.167c-9.807-1.026-19.554-2.799-29.227-4.763
	c-2.071-0.422-4.13-2.41-5.558-4.187C132.898,42.475,126.729,34.334,118.607,23.842z"/>
<path fill="#00D7FE" d="M189.341,142.095c-0.953-1.2-3.052-2.963-4.03-5.215c-3.717-8.558-7.104-17.259-10.51-25.95
	c-0.418-1.06-0.622-2.532-0.232-3.546c3.466-8.979,7.1-17.894,10.659-26.837c1.539-3.847,3.684-5.385,8.117-3.69
	c14.183,5.434,27.979,11.213,38.198,23.285c4.671,5.513,6.189,10.34,1.184,16.448c-10.348,12.619-24.406,19.292-39.056,25.111
	C192.947,141.992,192.056,141.867,189.341,142.095z"/>
<path fill="#00D7FE" d="M167.323,122.918c3.585,9.25,6.144,15.869,8.991,23.214c-8.466,1.702-15.72,3.16-25.325,5.097
	C156.799,141.155,161.415,133.151,167.323,122.918z"/>
<path fill="#00D7FE" d="M111.378,184.768c-5.651-7.104-10.183-12.806-15.535-19.527c10.786,0,19.859,0,30.926,0
	C121.488,171.943,116.981,177.664,111.378,184.768z"/>
<path fill="#00D7FE" d="M55.082,94.729c-3.483-8.559-6.129-15.074-9.198-22.612c8.367-1.785,15.525-3.313,24.674-5.263
	C65.137,76.618,60.699,84.612,55.082,94.729z"/>
<path fill="#00D7FE" d="M55.092,123.681c5.438,9.584,9.973,17.579,15.475,27.276c-8.814-1.606-15.995-2.909-24.648-4.484
	C49.02,138.768,51.705,132.098,55.092,123.681z"/>
<path fill="#00D7FE" d="M151.079,67.449c9.172,1.609,16.449,2.888,24.793,4.351c-2.941,7.265-5.675,14.015-8.944,22.09
	C161.44,84.732,156.852,77.081,151.079,67.449z"/>
<path fill="#00D7FE" d="M124.46,53.159c-7.885,0-15.763,0.01-23.648-0.008c-1.054-0.002-2.109-0.119-4.948-0.294
	c4.88-5.899,8.951-10.982,13.285-15.829c0.464-0.521,2.912-0.136,3.674,0.61c4.536,4.409,8.842,9.046,13.227,13.609
	C125.52,51.886,124.99,52.524,124.46,53.159z"/>
<path fill="#FDFEFE" d="M86.533,109.201c-0.003-16.907,7.851-23.972,24.391-25.1c12.191-0.833,25.62,12.771,24.952,24.292
	c-0.767,13.276-10.369,25.774-26.436,25.369C94.721,133.388,86.536,124.916,86.533,109.201z"/>
</svg>
