<?xml version="1.0" encoding="utf-8"?>
<!-- Generator: Adobe Illustrator 16.0.0, SVG Export Plug-In . SVG Version: 6.00 Build 0)  -->
<!DOCTYPE svg PUBLIC "-//W3C//DTD SVG 1.1//EN" "http://www.w3.org/Graphics/SVG/1.1/DTD/svg11.dtd">
<svg version="1.1" id="Layer_1" xmlns="http://www.w3.org/2000/svg" xmlns:xlink="http://www.w3.org/1999/xlink" x="0px" y="0px"
	 width="700px" height="700px" viewBox="0 0 700 700" enable-background="new 0 0 700 700" xml:space="preserve">
<path fill="#CC6799" d="M0,700.912C0,467.275,0,233.638,0,0c233.333,0,466.667,0,700,0c0,233.506,0,467.013,0,700.912
	C466.168,700.912,233.085,700.912,0,700.912z M176.564,428.187c-10.501-9.095-20.528-18.084-30.883-26.677
	c-17.787-14.76-36.971-27.862-52.44-45.339c-20.205-22.824-25.032-48.151-12.907-76.38c8.212-19.12,21.162-34.92,37.005-47.8
	c58.396-47.473,122.648-82.258,199.374-88.403c19.274-1.544,38.299,0.43,56.345,7.888c13.294,5.495,23.246,14.333,25.621,29.486
	c1.528,9.771,0.06,19.277-3.292,28.479c-9.236,25.358-26.643,44.37-47.764,60.195c-27.058,20.276-57.678,32.206-91.052,36.948
	c-27.947,3.97-54.617,2.558-75.777-19.873c-0.871-0.923-3.542-1.438-4.346-0.815c-1.162,0.903-2.278,3.339-1.844,4.563
	c1.59,4.496,3.088,9.339,5.952,13.015c14.348,18.417,34.44,25.325,56.801,26.849c23.251,1.584,46.084-1.24,68.659-6.98
	c47.607-12.104,85.617-37.49,111.127-80.144c12.255-20.487,18.726-42.621,16.909-66.735c-0.811-10.762-3.573-21.002-9.416-30.206
	c-11.092-17.473-27.726-27.521-46.685-34.097c-25.573-8.872-51.985-10.357-78.761-8.146c-29.97,2.476-58.436,10.737-86.086,22.184
	C158.48,148.815,107.56,177.196,66.64,221.015c-15.125,16.196-27.567,34.161-35.779,54.937c-8.259,20.895-7.926,41.138,3.026,61.104
	c8.95,16.317,20.524,30.594,34.914,42.055c21.471,17.101,43.846,33.064,65.817,49.536c5.689,4.266,11.311,8.621,17.446,13.303
	c-1.817,1.149-2.873,1.895-3.995,2.515c-8.155,4.513-16.462,8.768-24.461,13.54c-21.794,13.003-43.1,26.822-59.583,46.519
	c-16.17,19.322-22.591,41.405-14.947,66.166c3.335,10.804,9.301,20.316,20.909,23.818c12.563,3.786,25.548,4.314,38.517,2.08
	c49.483-8.523,87.794-54.1,88.137-104.377c0.107-15.798-1.208-31.24-8.136-46.179c11.791-6.838,23.253-13.485,35.542-20.61
	c-5.644,20.503-9.56,39.865-7.325,59.892c1.645,14.73,5.772,28.728,13.979,41.258c3.169,4.84,7.128,8.776,13.042,10.214
	c11.616,2.822,20.626-0.417,27.359-11.243c4.995-8.027,9-16.692,13.149-25.218c3.252-6.687,6.05-13.597,9.05-20.406
	c0.556,1.908,0.463,3.562,0.291,5.208c-1.115,10.674-1.049,21.275,2.492,31.557c4.087,11.87,15.958,15.882,25.367,7.72
	c6.168-5.353,11.855-11.895,15.89-18.972c21.135-37.073,39.52-75.512,54.948-115.339c0.419-1.082,1.11-2.058,2.193-4.026
	c2.965,18.772,8.557,35.428,17.127,51.006c1.884,3.42,1.722,5.95-0.71,8.95c-11.215,13.835-22.409,27.694-33.345,41.753
	c-4.052,5.208-8.128,10.643-10.824,16.596c-2.876,6.347,0.664,12.393,7.23,13.922c3.679,0.856,7.769,1.736,11.326,0.98
	c10.344-2.201,20.939-4.178,30.649-8.162c15.209-6.24,27.528-16.224,32.449-33.054c4.14-14.148,1.652-27.759-3.589-41.012
	c-1.348-3.406-0.879-5.73,0.947-8.664c8.178-13.152,16.242-26.381,24.083-39.734c4.09-6.964,7.636-14.249,10.968-20.526
	c5.589,16.449,11.287,33.22,17.049,50.18c-3.674,3.867-8.259,8.454-12.577,13.284c-11.691,13.072-21.327,27.11-23.514,45.305
	c-2.231,18.588,11.064,23.475,23.061,19.793c13.696-4.206,26.256-10.49,36.817-20.357c10.696-9.996,17.784-21.765,16.176-36.991
	c-0.758-7.175-2.813-14.211-4.341-21.605c1.606-0.647,3.404-1.498,5.281-2.113c26.674-8.771,53.412-8.101,79.967,0.212
	c14.503,4.54,26.732,12.69,35.058,25.861c10.071,15.934,9.732,30.672-1.599,43.772c-3.314,3.831-7.995,6.451-11.861,9.84
	c-1.073,0.938-1.479,2.643-2.191,3.995c1.519,0.699,2.979,1.604,4.57,2.017c0.844,0.219,1.953-0.305,2.865-0.68
	c20.014-8.218,29.755-23.804,29.255-42.826c-0.593-22.557-11.573-40.12-29.749-52.845c-26.683-18.683-56.57-20.938-87.451-14.795
	c-10.824,2.151-21.246,6.339-33.036,9.96c-3.691-8.938-8.587-18.293-11.434-28.234c-4.898-17.112-1.802-33.966,4.243-50.417
	c2.651-7.211,0.726-11.217-6.913-11.535c-8.855-0.369-17.809,0.921-26.675,1.899c-3.313,0.365-5.342,2.79-6.256,6.292
	c-2.105,8.044-3.492,16.507-7.037,23.901c-9.133,19.049-19.239,37.629-29.052,56.348c-2.295,4.375-4.961,8.558-7.455,12.827
	c-0.54,0.031-1.08,0.063-1.619,0.092c-2.593-7.486-5.761-14.829-7.662-22.487c-4.135-16.656-0.676-32.698,5.089-48.447
	c2.266-6.195,0.496-9.628-5.959-10.801c-9.61-1.745-19.298-1.297-28.494,2.11c-2.29,0.848-4.438,3.797-5.369,6.266
	c-2.339,6.205-3.417,12.905-5.943,19.015c-7.763,18.765-15.78,37.426-24.046,55.974c-9.822,22.048-19.961,43.952-30.075,65.866
	c-1.521,3.298-3.652,6.314-5.501,9.46c-2.993-10.935-0.377-20.95,1.995-30.894c4.056-17.003,8.526-33.904,12.814-50.852
	c1.992-7.873,0.052-12.186-7.582-13.929c-4.108-0.94-8.671,0.118-12.653,0.262c0-5.44,0.479-11.94-0.095-18.345
	c-1.383-15.442-11.018-23.164-25.557-20.88c-2.769,0.434-5.532,1.229-8.151,2.241c-14.631,5.653-26.79,15.006-36.729,26.861
	c-6.223,7.424-13.104,13.279-21.673,17.774C209.714,409.455,192.993,419.079,176.564,428.187z"/>
<path fill="#FEFDFD" d="M177.541,428.576c16.427-9.095,33.146-18.705,50.214-27.652c8.566-4.489,15.448-10.336,21.67-17.749
	c9.938-11.839,22.095-21.179,36.725-26.823c2.619-1.011,5.381-1.806,8.15-2.238c14.537-2.28,24.171,5.43,25.554,20.851
	c0.572,6.396,0.095,12.887,0.095,18.318c3.981-0.143,8.544-1.199,12.651-0.262c7.633,1.742,9.572,6.048,7.581,13.91
	c-4.287,16.922-8.757,33.801-12.813,50.778c-2.372,9.929-4.986,19.931-1.995,30.85c1.85-3.143,3.979-6.153,5.5-9.447
	c10.113-21.883,20.25-43.757,30.072-65.771c8.265-18.521,16.281-37.155,24.043-55.894c2.526-6.102,3.604-12.792,5.943-18.988
	c0.931-2.464,3.078-5.41,5.368-6.257c9.194-3.402,18.881-3.85,28.489-2.106c6.456,1.17,8.225,4.599,5.958,10.784
	c-5.763,15.727-9.221,31.745-5.087,48.378c1.901,7.647,5.068,14.979,7.661,22.455c0.539-0.029,1.079-0.061,1.618-0.092
	c2.495-4.264,5.16-8.438,7.454-12.809c9.811-18.691,19.917-37.245,29.049-56.268c3.545-7.384,4.931-15.834,7.035-23.867
	c0.915-3.496,2.941-5.918,6.256-6.282c8.865-0.978,17.816-2.266,26.671-1.896c7.639,0.317,9.563,4.317,6.913,11.519
	c-6.044,16.427-9.142,33.257-4.243,50.345c2.847,9.928,7.74,19.269,11.433,28.194c11.788-3.616,22.209-7.798,33.03-9.946
	c30.878-6.134,60.763-3.882,87.441,14.773c18.174,12.707,29.153,30.244,29.745,52.77c0.5,18.994-9.24,34.561-29.251,42.766
	c-0.912,0.374-2.021,0.896-2.864,0.679c-1.591-0.412-3.054-1.314-4.569-2.014c0.712-1.352,1.117-3.053,2.189-3.99
	c3.867-3.384,8.547-6,11.86-9.825c11.329-13.082,11.669-27.8,1.599-43.71c-8.324-13.152-20.552-21.291-35.053-25.825
	c-26.552-8.3-53.286-8.968-79.957-0.211c-1.876,0.614-3.675,1.464-5.28,2.11c1.527,7.384,3.582,14.41,4.34,21.574
	c1.608,15.205-5.479,26.957-16.174,36.938c-10.562,9.854-23.118,16.129-36.813,20.328c-11.995,3.678-25.289-1.203-23.058-19.765
	c2.186-18.168,11.819-32.188,23.512-45.24c4.317-4.821,8.901-9.402,12.575-13.265c-5.762-16.937-11.459-33.684-17.047-50.108
	c-3.332,6.27-6.877,13.544-10.967,20.497c-7.84,13.335-15.903,26.544-24.08,39.678c-1.825,2.931-2.295,5.25-0.947,8.653
	c5.241,13.232,7.728,26.823,3.589,40.952c-4.921,16.806-17.238,26.773-32.445,33.006c-9.709,3.979-20.304,5.953-30.646,8.15
	c-3.558,0.756-7.646-0.122-11.325-0.979c-6.564-1.527-10.104-7.564-7.229-13.902c2.695-5.944,6.771-11.371,10.822-16.572
	c10.935-14.038,22.127-27.878,33.341-41.693c2.431-2.994,2.593-5.521,0.71-8.938c-8.57-15.556-14.16-32.187-17.125-50.933
	c-1.083,1.966-1.774,2.939-2.193,4.021c-15.427,39.771-33.809,78.153-54.941,115.175c-4.034,7.066-9.72,13.601-15.888,18.944
	c-9.408,8.15-21.276,4.145-25.364-7.709c-3.54-10.267-3.606-20.853-2.491-31.512c0.172-1.645,0.265-3.295-0.291-5.2
	c-3,6.8-5.797,13.7-9.049,20.377c-4.148,8.514-8.153,17.166-13.147,25.182c-6.732,10.811-15.741,14.047-27.355,11.228
	c-5.913-1.437-9.871-5.366-13.04-10.199c-8.206-12.514-12.332-26.49-13.976-41.199c-2.235-19.998,1.68-39.332,7.323-59.807
	c-12.287,7.115-23.748,13.753-35.537,20.581c6.927,14.918,8.242,30.338,8.135,46.113c-0.343,50.204-38.649,95.717-88.126,104.228
	c-12.967,2.23-25.951,1.704-38.512-2.077c-11.606-3.496-17.571-12.996-20.906-23.784c-7.644-24.727-1.223-46.776,14.945-66.071
	c16.481-19.668,37.783-33.468,59.575-46.452c7.998-4.766,16.304-9.016,24.458-13.521c1.122-0.619,2.177-1.362,3.994-2.512
	c-6.134-4.675-11.754-9.023-17.443-13.283c-21.969-16.448-44.339-32.39-65.809-49.466c-14.388-11.443-25.96-25.7-34.909-41.995
	c-10.95-19.938-11.283-40.151-3.025-61.017c8.212-20.747,20.652-38.687,35.774-54.858c40.914-43.756,91.828-72.098,146.445-94.68
	c27.646-11.431,56.108-19.68,86.075-22.152c26.772-2.209,53.182-0.727,78.751,8.134c18.956,6.567,35.588,16.602,46.679,34.049
	c5.842,9.19,8.604,19.418,9.415,30.162c1.814,24.08-4.654,46.183-16.907,66.64c-25.508,42.593-63.513,67.942-111.113,80.029
	c-22.572,5.731-45.402,8.552-68.65,6.971c-22.358-1.521-42.448-8.42-56.794-26.811c-2.862-3.669-4.36-8.507-5.951-12.996
	c-0.435-1.222,0.683-3.654,1.844-4.556c0.804-0.623,3.476-0.108,4.346,0.813c21.157,22.399,47.824,23.811,75.768,19.845
	c33.37-4.735,63.986-16.648,91.041-36.896c21.118-15.803,38.521-34.788,47.758-60.109c3.351-9.188,4.819-18.681,3.291-28.438
	c-2.375-15.131-12.325-23.958-25.618-29.444c-18.043-7.447-37.065-9.419-56.338-7.877c-76.715,6.137-140.96,40.872-199.348,88.277
	c-15.842,12.862-28.791,28.639-37.001,47.731c-12.123,28.188-7.296,53.479,12.905,76.271c15.467,17.451,34.649,30.535,52.434,45.273
	C157.016,410.519,167.042,419.495,177.541,428.576z M168.741,456.62c-20.046,11.835-38.667,24.196-55.542,39.149
	c-13.102,11.609-22.36,25.273-25.598,42.708c-2.87,15.467,5.6,24.318,21.023,21.82c1.635-0.266,3.283-0.566,4.86-1.058
	c27.533-8.537,44.769-27.64,54.431-54.024C173.669,489.504,173.323,473.405,168.741,456.62z M249.958,474.519
	c1.01,4.226,2.46,12.2,4.925,19.848c1.337,4.149,4.283,4.266,7.138,0.881c1.915-2.27,3.784-4.773,4.897-7.492
	c8.443-20.598,17.157-41.104,24.833-61.989c4.508-12.267,7.5-25.114,10.729-37.813c1.748-6.875-1.616-9.729-8.21-6.878
	c-4.318,1.867-8.746,4.503-11.877,7.936C261.336,412.074,251.368,439.665,249.958,474.519z M485.463,476.353
	c18.638-3.531,32.293-28.76,23.973-44.289C496.726,441.298,482.872,466.888,485.463,476.353z M392.37,498.531
	c13-0.285,32.798-23.646,30.828-36.269C412.91,474.365,402.698,486.379,392.37,498.531z"/>
<path fill="#CD6899" d="M168.741,456.62c4.581,16.785,4.928,32.884-0.825,48.597c-9.662,26.386-26.896,45.487-54.431,54.024
	c-1.578,0.49-3.226,0.792-4.86,1.058c-15.424,2.498-23.894-6.354-21.023-21.82c3.236-17.434,12.496-31.099,25.598-42.708
	C130.075,480.816,148.696,468.455,168.741,456.62z"/>
<path fill="#CD6899" d="M249.958,474.519c1.41-34.854,11.378-62.444,32.435-85.512c3.132-3.432,7.559-6.066,11.877-7.935
	c6.595-2.852,9.958,0.003,8.21,6.878c-3.229,12.699-6.221,25.548-10.729,37.813c-7.676,20.886-16.39,41.393-24.833,61.989
	c-1.114,2.719-2.982,5.224-4.897,7.492c-2.854,3.385-5.8,3.27-7.138-0.881C252.418,486.719,250.968,478.744,249.958,474.519z"/>
<path fill="#CD6B9B" d="M485.463,476.353c-2.591-9.465,11.263-35.056,23.973-44.289
	C517.756,447.594,504.101,472.821,485.463,476.353z"/>
<path fill="#CE6D9D" d="M392.37,498.531c10.328-12.152,20.54-24.166,30.828-36.269C425.168,474.885,405.37,498.246,392.37,498.531z"
	/>
</svg>
