<?xml version="1.0" encoding="utf-8"?>
<!-- Generator: Adobe Illustrator 16.0.0, SVG Export Plug-In . SVG Version: 6.00 Build 0)  -->
<!DOCTYPE svg PUBLIC "-//W3C//DTD SVG 1.1//EN" "http://www.w3.org/Graphics/SVG/1.1/DTD/svg11.dtd">
<svg version="1.1" id="Layer_1" xmlns="http://www.w3.org/2000/svg" xmlns:xlink="http://www.w3.org/1999/xlink" x="0px" y="0px"
	 width="400px" height="400px" viewBox="150 150 400 400" enable-background="new 150 150 400 400" xml:space="preserve">
<rect x="150" y="150" fill="#CD6899" width="400" height="400"/>
<path fill="#FEFDFD" d="M274.309,378.118c7.117-3.931,14.359-8.084,21.754-11.951c3.711-1.94,6.692-4.468,9.389-7.671
	c4.305-5.117,9.571-9.153,15.909-11.593c1.135-0.437,2.331-0.779,3.53-0.968c6.299-0.984,10.472,2.348,11.071,9.013
	c0.247,2.765,0.041,5.569,0.041,7.916c1.725-0.061,3.701-0.517,5.48-0.112c3.307,0.753,4.146,2.614,3.284,6.012
	c-1.857,7.313-3.794,14.608-5.551,21.944c-1.027,4.292-2.16,8.614-0.863,13.334c0.801-1.358,1.723-2.659,2.382-4.083
	c4.381-9.458,8.772-18.911,13.027-28.425c3.58-8.005,7.053-16.059,10.417-24.157c1.093-2.638,1.561-5.528,2.574-8.207
	c0.402-1.063,1.334-2.337,2.325-2.704c3.982-1.471,8.18-1.663,12.343-0.909c2.796,0.505,3.563,1.986,2.58,4.66
	c-2.496,6.797-3.994,13.72-2.203,20.908c0.823,3.306,2.194,6.474,3.317,9.705c0.234-0.013,0.469-0.026,0.702-0.04
	c1.08-1.843,2.235-3.646,3.229-5.536c4.252-8.077,8.629-16.097,12.586-24.317c1.534-3.191,2.135-6.843,3.047-10.315
	c0.396-1.511,1.274-2.559,2.711-2.716c3.84-0.422,7.718-0.979,11.554-0.818c3.309,0.137,4.143,1.865,2.994,4.979
	c-2.618,7.1-3.96,14.373-1.838,21.758c1.233,4.291,3.353,8.327,4.953,12.186c5.107-1.563,9.621-3.371,14.31-4.298
	c13.377-2.652,26.322-1.679,37.881,6.383c7.873,5.493,12.629,13.072,12.887,22.808c0.215,8.209-4.004,14.937-12.673,18.482
	c-0.395,0.162-0.875,0.388-1.24,0.294c-0.69-0.179-1.324-0.568-1.979-0.87c0.309-0.585,0.483-1.32,0.948-1.726
	c1.675-1.461,3.703-2.593,5.138-4.246c4.908-5.654,5.056-12.015,0.693-18.89c-3.606-5.685-8.904-9.202-15.187-11.162
	c-11.503-3.587-23.084-3.877-34.639-0.091c-0.813,0.266-1.593,0.633-2.287,0.912c0.662,3.19,1.551,6.228,1.879,9.324
	c0.697,6.57-2.373,11.649-7.006,15.964c-4.575,4.258-10.016,6.97-15.948,8.785c-5.195,1.589-10.956-0.521-9.989-8.542
	c0.946-7.853,5.12-13.912,10.187-19.553c1.871-2.084,3.856-4.063,5.447-5.732c-2.496-7.32-4.964-14.558-7.386-21.656
	c-1.442,2.709-2.979,5.854-4.75,8.858c-3.396,5.763-6.89,11.472-10.432,17.147c-0.79,1.268-0.995,2.27-0.41,3.74
	c2.271,5.719,3.348,11.594,1.555,17.699c-2.133,7.264-7.468,11.571-14.057,14.266c-4.205,1.719-8.796,2.572-13.275,3.521
	c-1.542,0.327-3.313-0.052-4.906-0.423c-2.844-0.66-4.377-3.269-3.132-6.009c1.167-2.568,2.934-4.913,4.688-7.162
	c4.737-6.067,9.585-12.049,14.443-18.02c1.054-1.294,1.124-2.385,0.308-3.862c-3.714-6.724-6.135-13.911-7.419-22.012
	c-0.47,0.85-0.769,1.27-0.949,1.737c-6.685,17.188-14.647,33.777-23.803,49.777c-1.747,3.054-4.211,5.878-6.882,8.188
	c-4.076,3.521-9.218,1.79-10.988-3.332c-1.534-4.438-1.563-9.013-1.08-13.619c0.075-0.711,0.115-1.425-0.126-2.248
	c-1.299,2.939-2.511,5.922-3.919,8.808c-1.798,3.679-3.533,7.418-5.696,10.883c-2.916,4.672-6.819,6.07-11.852,4.853
	c-2.562-0.62-4.276-2.318-5.649-4.408c-3.554-5.407-5.342-11.448-6.054-17.806c-0.968-8.642,0.728-16.998,3.172-25.848
	c-5.323,3.075-10.288,5.944-15.395,8.895c3,6.447,3.571,13.112,3.524,19.931c-0.149,21.697-16.744,41.366-38.178,45.046
	c-5.618,0.963-11.243,0.736-16.684-0.898c-5.028-1.511-7.612-5.616-9.057-10.279c-3.312-10.687-0.53-20.216,6.475-28.555
	c7.14-8.5,16.368-14.465,25.809-20.075c3.465-2.062,7.063-3.897,10.596-5.844c0.486-0.268,0.943-0.589,1.73-1.086
	c-2.657-2.021-5.092-3.9-7.557-5.741c-9.517-7.108-19.208-13.998-28.509-21.378c-6.234-4.946-11.247-11.107-15.124-18.15
	c-4.744-8.617-4.888-17.352-1.311-26.371c3.558-8.966,8.947-16.72,15.498-23.708c17.725-18.911,39.782-31.16,63.442-40.919
	c11.978-4.94,24.308-8.505,37.29-9.574c11.598-0.955,23.039-0.314,34.117,3.515c8.212,2.839,15.417,7.175,20.222,14.716
	c2.531,3.972,3.729,8.392,4.078,13.036c0.786,10.407-2.016,19.959-7.323,28.801c-11.052,18.408-27.516,29.364-48.137,34.588
	c-9.778,2.477-19.67,3.695-29.74,3.012c-9.687-0.657-18.39-3.639-24.605-11.587c-1.24-1.586-1.889-3.677-2.578-5.617
	c-0.189-0.528,0.296-1.579,0.799-1.969c0.348-0.269,1.505-0.046,1.882,0.352c9.166,9.681,20.718,10.291,32.825,8.576
	c14.456-2.046,27.72-7.194,39.44-15.946c9.148-6.83,16.688-15.035,20.689-25.978c1.451-3.971,2.088-8.074,1.426-12.291
	c-1.029-6.54-5.34-10.354-11.099-12.726c-7.816-3.218-16.057-4.07-24.406-3.404c-33.233,2.652-61.067,17.664-86.361,38.152
	c-6.863,5.559-12.473,12.377-16.03,20.629c-5.251,12.182-3.161,23.112,5.591,32.963c6.701,7.543,15.011,13.196,22.715,19.566
	C265.417,370.313,269.76,374.193,274.309,378.118z M270.497,390.237c-8.685,5.115-16.752,10.458-24.063,16.921
	c-5.676,5.017-9.687,10.922-11.089,18.457c-1.243,6.686,2.426,10.51,9.107,9.431c0.708-0.115,1.422-0.244,2.105-0.457
	c11.928-3.689,19.395-11.945,23.582-23.349C272.631,404.45,272.481,397.492,270.497,390.237z M305.681,397.975
	c0.438,1.826,1.066,5.271,2.134,8.577c0.579,1.794,1.855,1.843,3.093,0.381c0.83-0.98,1.641-2.063,2.122-3.238
	c3.657-8.901,7.433-17.764,10.758-26.791c1.952-5.302,3.249-10.854,4.647-16.342c0.758-2.972-0.699-4.204-3.556-2.973
	c-1.871,0.808-3.789,1.946-5.146,3.43C310.61,370.986,306.292,382.91,305.681,397.975z M407.706,398.766
	c8.075-1.525,13.989-12.429,10.385-19.14C412.585,383.616,406.583,394.676,407.706,398.766z M367.377,408.352
	c5.632-0.124,14.208-10.221,13.355-15.675C376.275,397.907,371.852,403.1,367.377,408.352z"/>
<path fill="#CD6899" d="M270.497,390.237c1.984,7.255,2.134,14.213-0.358,21.004c-4.186,11.403-11.652,19.659-23.581,23.348
	c-0.684,0.212-1.398,0.343-2.105,0.458c-6.682,1.079-10.351-2.746-9.107-9.431c1.401-7.534,5.414-13.44,11.089-18.458
	C253.746,400.695,261.813,395.353,270.497,390.237z"/>
<path fill="#CD6899" d="M305.681,397.975c0.611-15.064,4.93-26.987,14.053-36.958c1.356-1.482,3.274-2.622,5.146-3.429
	c2.856-1.233,4.313,0.001,3.556,2.972c-1.398,5.489-2.695,11.042-4.647,16.343c-3.325,9.027-7.101,17.89-10.758,26.791
	c-0.483,1.175-1.292,2.257-2.122,3.237c-1.237,1.464-2.513,1.413-3.093-0.381C306.747,403.246,306.119,399.799,305.681,397.975z"/>
<path fill="#CD6B9B" d="M407.706,398.766c-1.123-4.09,4.879-15.149,10.385-19.14C421.695,386.337,415.781,397.24,407.706,398.766z"
	/>
<path fill="#CE6D9D" d="M367.377,408.352c4.475-5.252,8.898-10.444,13.355-15.675C381.585,398.131,373.009,408.228,367.377,408.352z
	"/>
</svg>
