<svg id="Camada_1" data-name="Camada 1" xmlns="http://www.w3.org/2000/svg" viewBox="0 0 512 512"><defs><style>.cls-1{fill:#1f8cbc;}.cls-2{fill:#51a6cb;}.cls-3{fill:#fefefe;}</style></defs><title>wordpress-icon</title><path class="cls-1" d="M512.1,273.1v6c-1.46,6.75-1.11,13.66-1.76,20.48-1.89,20-8.26,38.85-16,57.23A255.09,255.09,0,0,1,455.32,421a258.81,258.81,0,0,1-71.08,59.77,254.57,254.57,0,0,1-71.43,27.75c-10.5,2.37-21.23,2.07-31.85,3.07-1,.09-2-.26-2.86.5h-6a5.55,5.55,0,0,0-5,0h-22a7.88,7.88,0,0,0-6,0h-6c-4.81-1.33-9.81-1.13-14.7-1.34-22.22-.94-42.84-8-63.05-16.39A253,253,0,0,1,91.1,455.28a259,259,0,0,1-60-71.57A256.2,256.2,0,0,1,3.73,313.1C1.29,302.49,1.62,291.64.6,280.91a2.81,2.81,0,0,0-.5-1.81v-6a7.88,7.88,0,0,0,0-6v-22a7.88,7.88,0,0,0,0-6v-6c1.46-6.75,1.11-13.66,1.76-20.48,1.89-20,8.26-38.85,16-57.23a255.08,255.08,0,0,1,39.07-64.2A258.81,258.81,0,0,1,128,31.42,254.56,254.56,0,0,1,199.4,3.67C209.9,1.3,220.63,1.6,231.25.6c1-.09,2,.26,2.86-.5h5a7.88,7.88,0,0,0,6,0h22a7.88,7.88,0,0,0,6,0h5c7,1.19,14.1.93,21.12,1.63,20,2,38.88,8.19,57.27,15.91A259.45,259.45,0,0,1,508.43,198.92c2.44,10.65,2.16,21.54,3.17,32.32.09,1-.26,2,.5,2.85v5a7.88,7.88,0,0,0,0,6v22A7.88,7.88,0,0,0,512.1,273.1Z" transform="translate(-0.1 -0.1)"/><path class="cls-2" d="M245.1.1a5,5,0,0,1-6,0Z" transform="translate(-0.1 -0.1)"/><path class="cls-2" d="M273.1.1a5,5,0,0,1-6,0Z" transform="translate(-0.1 -0.1)"/><path class="cls-2" d="M.1,239.1c1.44,2,1.21,4,0,6Z" transform="translate(-0.1 -0.1)"/><path class="cls-2" d="M512.1,245.1c-1.21-2-1.44-4,0-6Z" transform="translate(-0.1 -0.1)"/><path class="cls-2" d="M.1,267.1c1.21,2,1.44,4,0,6Z" transform="translate(-0.1 -0.1)"/><path class="cls-2" d="M512.1,273.1c-1.44-2-1.21-4,0-6Z" transform="translate(-0.1 -0.1)"/><path class="cls-2" d="M239.1,512.1a5,5,0,0,1,6,0Z" transform="translate(-0.1 -0.1)"/><path class="cls-2" d="M267.1,512.1c1.67-1.12,3.33-1.35,5,0Z" transform="translate(-0.1 -0.1)"/><path class="cls-3" d="M336.45,354,279.1,183.36c6.36-.61,12.33-1.12,18.27-1.8a6.47,6.47,0,0,0,3.4-11.54c-1.7-1.39-3.67-1.23-5.7-1.12-15.78.86-31.55,2.24-47.37,1.68-11.48-.41-22.94-1.12-34.42-1.67-5.16-.25-7.86,1.67-8.24,5.79s2,6.38,7.15,7.14l.5.06c5.06.61,11.44-.93,14.83,2.35s3.93,9.32,5.7,14.16c5.88,16.23,11.8,32.48,17.88,48.69a12,12,0,0,1,.18,8.63c-11.19,33.22-22.22,66.5-33.77,101.17L159.1,183.3c5.5-.47,10.62-.89,15.74-1.36,2.16-.2,4.35-.41,6.13-1.84a6,6,0,0,0,1.93-7.21c-1.18-3.21-3.77-4.26-7.18-4.07-13.3.72-26.6,1.32-39.9,1.87-3.77.16-7.55,0-11.71,0,48.74-80.14,168-98.54,239.91-31-3.41.8-6.84,1.21-10,2.42-13.83,5.32-20.6,20.39-16.34,35.94,2.59,9.46,8,17.53,13,25.72,9.51,15.33,15.37,31.68,14.39,50a121.15,121.15,0,0,1-7.12,34.1c-7.12,20.28-12.85,41-19.09,61.48C338.4,350.8,338.5,352.67,336.45,354Z" transform="translate(-0.1 -0.1)"/><path class="cls-3" d="M260.18,272.33c6.55,17.9,12.71,34.72,18.85,51.55,9.86,27,19.63,54.05,29.66,81,1.3,3.48,1,4.68-2.71,5.82a162.64,162.64,0,0,1-90.12,2.14c-2.2-.57-4.36-.63-3-4.41Q236.1,341.57,259,274.58C259.19,274.16,259.44,273.77,260.18,272.33Z" transform="translate(-0.1 -0.1)"/><path class="cls-3" d="M186.75,401.41c-79.48-36.8-110.18-135.12-75.71-207C113.3,197.9,185.89,396.42,186.75,401.41Z" transform="translate(-0.1 -0.1)"/><path class="cls-3" d="M337.79,395.32l7.88-22.93c15.59-45.11,31.4-90.14,46.68-135.35,5.91-17.48,7.19-35.91,5.93-52.82,16.21,29.41,22,61,17.52,94.22C408.88,329.73,382.43,368.56,337.79,395.32Z" transform="translate(-0.1 -0.1)"/></svg>